{
	"patcher" : 	{
		"fileversion" : 1,
		"appversion" : 		{
			"major" : 8,
			"minor" : 0,
			"revision" : 3,
			"architecture" : "x64",
			"modernui" : 1
		}
,
		"classnamespace" : "box",
		"rect" : [ 105.0, 214.0, 955.0, 619.0 ],
		"bglocked" : 0,
		"openinpresentation" : 0,
		"default_fontsize" : 12.0,
		"default_fontface" : 0,
		"default_fontname" : "Arial",
		"gridonopen" : 1,
		"gridsize" : [ 15.0, 15.0 ],
		"gridsnaponopen" : 1,
		"objectsnaponopen" : 1,
		"statusbarvisible" : 2,
		"toolbarvisible" : 1,
		"lefttoolbarpinned" : 0,
		"toptoolbarpinned" : 0,
		"righttoolbarpinned" : 0,
		"bottomtoolbarpinned" : 0,
		"toolbars_unpinned_last_save" : 0,
		"tallnewobj" : 0,
		"boxanimatetime" : 200,
		"enablehscroll" : 1,
		"enablevscroll" : 1,
		"devicewidth" : 0.0,
		"description" : "",
		"digest" : "",
		"tags" : "",
		"style" : "",
		"subpatcher_template" : "",
		"boxes" : [ 			{
				"box" : 				{
					"autosave" : 1,
					"bgmode" : 0,
					"border" : 0,
					"clickthrough" : 0,
					"id" : "obj-2",
					"maxclass" : "newobj",
					"numinlets" : 2,
					"numoutlets" : 8,
					"offset" : [ 0.0, 0.0 ],
					"outlettype" : [ "signal", "signal", "", "list", "int", "", "", "" ],
					"patching_rect" : [ 351.0, 399.5, 455.0, 145.0 ],
					"save" : [ "#N", "vst~", "loaduniqueid", 0, "ValhallaRoom.auinfo", ";" ],
					"saved_attribute_attributes" : 					{
						"valueof" : 						{
							"parameter_invisible" : 1,
							"parameter_longname" : "vst~",
							"parameter_shortname" : "vst~",
							"parameter_type" : 3
						}

					}
,
					"saved_object_attributes" : 					{
						"parameter_enable" : 1,
						"parameter_mappable" : 0
					}
,
					"snapshot" : 					{
						"filetype" : "C74Snapshot",
						"version" : 2,
						"minorversion" : 0,
						"name" : "snapshotlist",
						"origin" : "vst~",
						"type" : "list",
						"subtype" : "Undefined",
						"embed" : 1,
						"snapshot" : 						{
							"pluginname" : "ValhallaRoom.auinfo",
							"plugindisplayname" : "ValhallaRoom",
							"pluginsavedname" : "ValhallaRoom",
							"pluginsaveduniqueid" : 1547991675,
							"version" : 1,
							"isbank" : 0,
							"isbase64" : 1,
							"sliderorder" : [  ],
							"slidervisibility" : [ 1, 1, 1, 1, 1, 1, 1, 1, 1, 1, 1, 1, 1, 1, 1, 1, 1, 1, 1, 1 ],
							"blob" : "1045.hAGaoMGcv.y0AHv.DTfAGfPBJr.CM3.WsEla0YVXiQWcxUlbTQVXzE1UyUmXzkGbkckckI2bo8laTQWdvU1WP7fZ0MVYPwVcmklaSQWXzUFUtEVakIwaDklaOAAq...............E..............P..........H..........C..........A.........T..........F.........vA.........f..........I.........fB.........r..........L.........PC.........3..........O..........D.........DA.........R.........vD.....HgT0UWaP.fDgUmY38TDBTqUCISHrJ...viUgwFZgwFagI0au0FHvwVcmklaVUlbyk1at0iHw3RMtDiHf.mbkMWYz4TXsUVOhPTYlEVcrQmHfzVZ30iHwHBHvIWYjUFagkWOhDiHfPVYiEVd8HBLt.SL1HSL1HSL1XCL3fCNwjSMvLyM3HBHHk1YnMTcz0iHv3xL2LSL0PyL2DSN2XCN0HCMwXSN4HBHkElbrkGSgQWYMkFd8HBLtbCNxjSN4jSNxLyMvXCL0PiM3bSMh.BagQWYSkldk0iHv3xM0jSN4jSN4.CM1LiL0XCNyTSNzHBHrEFckMjbuM2b8HRLh.BagQWYM8FYREFck0iHv3RLwjSL4DSNxHiLzbCMvjCNx.SM1HBHrEFck0zajQTYvQGZ8HBLtfSN4jSN4jyM1DSM3DCMx.CN4fCMh.hTTITXyMWS0wFcoAGa40iHvHBHRQEVuYWYx0iHv3BL4.SNvjCL4LiMwfyL4HSNzPyLyXiHfHEUHk1Yn0TcrQWZvwVd8HBLtDSLwDSLwDSLwjyL3jSMyLSN4XiMh.hTTgTZmgFVuYWYx0iHv3RMy.iLvDyLwTCN2jCNxDyM2byLzHBHkElbrk2TooWY8HBLt.iL4.iL4.iL3PSNvDCN0byL2XSLh.RYgIGa4MjbuM2b8HBLt.SM4jSN4jSN3XSM3fSN0PSNxTSMzHBHkElbrkWSuQlTgQWY8HBLtLiL2HyMxbSLyDCNzLSM1XCN4PSMh.RYgIGa40zajQTYvQGZ8HBLtLCLv.CLv.SLwjiLvjiL3jSM0.CNh.RYgIGa4MUYtQVOhDiHfPVZlYVcyk1at0iHwHBHzkGbk0iHv3BL3LyLyLyLyTCNwXCN1.SL4fSN2TiHfzVZ3wzaisVOh.iHfTWZWkFYzgVOhbyL0HBH0kFRkk1YnQWOhPiMvHxK9..VU4FcoQGakQF.H.vE.PB.o.PL.jC.9..T.TE.ZEPBA3P.PDPEC3L.......f.A.........vC..................v.WC"
						}
,
						"snapshotlist" : 						{
							"current_snapshot" : 0,
							"entries" : [ 								{
									"filetype" : "C74Snapshot",
									"version" : 2,
									"minorversion" : 0,
									"name" : "ValhallaRoom",
									"origin" : "ValhallaRoom.auinfo",
									"type" : "AudioUnit",
									"subtype" : "AudioEffect",
									"embed" : 0,
									"snapshot" : 									{
										"pluginname" : "ValhallaRoom.auinfo",
										"plugindisplayname" : "ValhallaRoom",
										"pluginsavedname" : "ValhallaRoom",
										"pluginsaveduniqueid" : 1547991675,
										"version" : 1,
										"isbank" : 0,
										"isbase64" : 1,
										"sliderorder" : [  ],
										"slidervisibility" : [ 1, 1, 1, 1, 1, 1, 1, 1, 1, 1, 1, 1, 1, 1, 1, 1, 1, 1, 1, 1 ],
										"blob" : "1045.hAGaoMGcv.y0AHv.DTfAGfPBJr.CM3.WsEla0YVXiQWcxUlbTQVXzE1UyUmXzkGbkckckI2bo8laTQWdvU1WP7fZ0MVYPwVcmklaSQWXzUFUtEVakIwaDklaOAAq...............E..............P..........H..........C..........A.........T..........F.........vA.........f..........I.........fB.........r..........L.........PC.........3..........O..........D.........DA.........R.........vD.....HgT0UWaP.fDgUmY38TDBTqUCISHrJ...viUgwFZgwFagI0au0FHvwVcmklaVUlbyk1at0iHw3RMtDiHf.mbkMWYz4TXsUVOhPTYlEVcrQmHfzVZ30iHwHBHvIWYjUFagkWOhDiHfPVYiEVd8HBLt.SL1HSL1HSL1XCL3fCNwjSMvLyM3HBHHk1YnMTcz0iHv3xL2LSL0PyL2DSN2XCN0HCMwXSN4HBHkElbrkGSgQWYMkFd8HBLtbCNxjSN4jSNxLyMvXCL0PiM3bSMh.BagQWYSkldk0iHv3xM0jSN4jSN4.CM1LiL0XCNyTSNzHBHrEFckMjbuM2b8HRLh.BagQWYM8FYREFck0iHv3RLwjSL4DSNxHiLzbCMvjCNx.SM1HBHrEFck0zajQTYvQGZ8HBLtfSN4jSN4jyM1DSM3DCMx.CN4fCMh.hTTITXyMWS0wFcoAGa40iHvHBHRQEVuYWYx0iHv3BL4.SNvjCL4LiMwfyL4HSNzPyLyXiHfHEUHk1Yn0TcrQWZvwVd8HBLtDSLwDSLwDSLwjyL3jSMyLSN4XiMh.hTTgTZmgFVuYWYx0iHv3RMy.iLvDyLwTCN2jCNxDyM2byLzHBHkElbrk2TooWY8HBLt.iL4.iL4.iL3PSNvDCN0byL2XSLh.RYgIGa4MjbuM2b8HBLt.SM4jSN4jSN3XSM3fSN0PSNxTSMzHBHkElbrkWSuQlTgQWY8HBLtLiL2HyMxbSLyDCNzLSM1XCN4PSMh.RYgIGa40zajQTYvQGZ8HBLtLCLv.CLv.SLwjiLvjiL3jSM0.CNh.RYgIGa4MUYtQVOhDiHfPVZlYVcyk1at0iHwHBHzkGbk0iHv3BL3LyLyLyLyTCNwXCN1.SL4fSN2TiHfzVZ3wzaisVOh.iHfTWZWkFYzgVOhbyL0HBH0kFRkk1YnQWOhPiMvHxK9..VU4FcoQGakQF.H.vE.PB.o.PL.jC.9..T.TE.ZEPBA3P.PDPEC3L.......f.A.........vC..................v.WC"
									}
,
									"fileref" : 									{
										"name" : "ValhallaRoom",
										"filename" : "ValhallaRoom_20190119.maxsnap",
										"filepath" : "~/Documents/Max 8/Snapshots",
										"filepos" : -1,
										"snapshotfileid" : "30a99a725772fccd665478c7c0482d27"
									}

								}
 ]
						}

					}
,
					"text" : "vst~ ValhallaRoom.auinfo",
					"varname" : "vst~",
					"viewvisibility" : 1
				}

			}
, 			{
				"box" : 				{
					"autosave" : 1,
					"bgmode" : 1,
					"border" : 0,
					"clickthrough" : 0,
					"enablehscroll" : 0,
					"enablevscroll" : 0,
					"id" : "obj-29",
					"lockeddragscroll" : 0,
					"maxclass" : "newobj",
					"numinlets" : 3,
					"numoutlets" : 4,
					"offset" : [ 0.0, 0.0 ],
					"outlettype" : [ "signal", "signal", "", "" ],
					"patching_rect" : [ 49.0, 182.0, 418.0, 196.0 ],
					"saved_attribute_attributes" : 					{
						"valueof" : 						{
							"parameter_invisible" : 1,
							"parameter_longname" : "amxd~",
							"parameter_shortname" : "amxd~",
							"parameter_type" : 3
						}

					}
,
					"saved_object_attributes" : 					{
						"parameter_enable" : 1,
						"patchername" : "Poly Vocoder.amxd",
						"patchername_fallback" : "C74:/packages/Max for Live/patchers/Max Audio Effect/Poly Vocoder.amxd"
					}
,
					"snapshot" : 					{
						"filetype" : "C74Snapshot",
						"version" : 2,
						"minorversion" : 0,
						"name" : "snapshotlist",
						"origin" : "max~",
						"type" : "list",
						"subtype" : "Undefined",
						"embed" : 1,
						"snapshot" : 						{
							"name" : "Poly Vocoder.amxd",
							"origname" : "C74:/packages/Max for Live/patchers/Max Audio Effect/Poly Vocoder.amxd",
							"valuedictionary" : 							{
								"parameter_values" : 								{
									"Bus" : 0.0,
									"Midi" : 1.0,
									"AmbienceThreshold" : 0.0,
									"Atten" : 1.0,
									"CorrectionAmount" : 100.0,
									"CorrectionThreshold" : 0.0,
									"Dry/Wet" : 100.0,
									"Fade" : 4881.889763779530767,
									"Gain" : 0.0,
									"Latency" : 1.0,
									"PreGain" : 0.0,
									"Quality" : 0.0,
									"Shift" : 1200.0,
									"SibilanceThreshold" : 100.0,
									"Spread" : 100.0,
									"Pattern" : 0.0,
									"blob" : 									{
										"Chord" : [ 48, 11, 55, 18, 62, 18, 69, 18, 76, 14 ],
										"Storage" : [ 											{
												"pattrstorage" : 												{
													"name" : "u091000433",
													"slots" : 													{
														"2" : 														{
															"id" : 2,
															"data" : 															{
																"Chord" : [ -1 ]
															}

														}
,
														"3" : 														{
															"id" : 3,
															"data" : 															{
																"Chord" : [ -1 ]
															}

														}

													}

												}

											}
 ]
									}

								}

							}

						}
,
						"snapshotlist" : 						{
							"current_snapshot" : 0,
							"entries" : [ 								{
									"filetype" : "C74Snapshot",
									"version" : 2,
									"minorversion" : 0,
									"name" : "Poly Vocoder.amxd",
									"origin" : "Poly Vocoder.amxd",
									"type" : "amxd",
									"subtype" : "Undefined",
									"embed" : 0,
									"snapshot" : 									{
										"name" : "Poly Vocoder.amxd",
										"origname" : "C74:/packages/Max for Live/patchers/Max Audio Effect/Poly Vocoder.amxd",
										"valuedictionary" : 										{
											"parameter_values" : 											{
												"Bus" : 0.0,
												"Midi" : 1.0,
												"AmbienceThreshold" : 0.0,
												"Atten" : 1.0,
												"CorrectionAmount" : 100.0,
												"CorrectionThreshold" : 0.0,
												"Dry/Wet" : 100.0,
												"Fade" : 4881.889763779530767,
												"Gain" : 0.0,
												"Latency" : 1.0,
												"PreGain" : 0.0,
												"Quality" : 0.0,
												"Shift" : 1200.0,
												"SibilanceThreshold" : 100.0,
												"Spread" : 100.0,
												"Pattern" : 0.0,
												"blob" : 												{
													"Chord" : [ 48, 11, 55, 18, 62, 18, 69, 18, 76, 14 ],
													"Storage" : [ 														{
															"pattrstorage" : 															{
																"name" : "u091000433",
																"slots" : 																{
																	"2" : 																	{
																		"id" : 2,
																		"data" : 																		{
																			"Chord" : [ -1 ]
																		}

																	}
,
																	"3" : 																	{
																		"id" : 3,
																		"data" : 																		{
																			"Chord" : [ -1 ]
																		}

																	}

																}

															}

														}
 ]
												}

											}

										}

									}
,
									"fileref" : 									{
										"name" : "Poly Vocoder.amxd",
										"filename" : "Poly Vocoder.amxd.maxsnap",
										"filepath" : "~/Documents/Max 8/Snapshots",
										"filepos" : -1,
										"snapshotfileid" : "f2e8f1e612af5dda67f3ba7effbbac7e"
									}

								}
 ]
						}

					}
,
					"text" : "amxd~ \"Poly Vocoder.amxd\"",
					"varname" : "amxd~",
					"viewvisibility" : 1
				}

			}
, 			{
				"box" : 				{
					"hidden" : 1,
					"id" : "obj-26",
					"maxclass" : "newobj",
					"numinlets" : 1,
					"numoutlets" : 1,
					"outlettype" : [ "bang" ],
					"patching_rect" : [ 574.0, 143.333343505859375, 25.0, 22.0 ],
					"text" : "t b"
				}

			}
, 			{
				"box" : 				{
					"id" : "obj-5",
					"maxclass" : "newobj",
					"numinlets" : 1,
					"numoutlets" : 1,
					"outlettype" : [ "int" ],
					"patching_rect" : [ 605.0, 310.0, 62.0, 22.0 ],
					"text" : "midiflush"
				}

			}
, 			{
				"box" : 				{
					"bubble" : 1,
					"fontname" : "Arial",
					"fontsize" : 13.0,
					"id" : "obj-14",
					"maxclass" : "comment",
					"numinlets" : 1,
					"numoutlets" : 0,
					"patching_rect" : [ 665.0, 194.333343505859375, 305.0, 25.0 ],
					"text" : "read (optional filename) from a text or MIDI file"
				}

			}
, 			{
				"box" : 				{
					"bubble" : 1,
					"fontname" : "Arial",
					"fontsize" : 13.0,
					"id" : "obj-40",
					"maxclass" : "comment",
					"numinlets" : 1,
					"numoutlets" : 0,
					"patching_rect" : [ 665.0, 221.333343505859375, 174.0, 25.0 ],
					"text" : "save as a MIDI or text file"
				}

			}
, 			{
				"box" : 				{
					"fontname" : "Arial",
					"fontsize" : 13.0,
					"id" : "obj-19",
					"linecount" : 3,
					"maxclass" : "comment",
					"numinlets" : 1,
					"numoutlets" : 0,
					"patching_rect" : [ 733.46795654296875, 328.0, 141.0, 50.0 ],
					"text" : "bang sent out right outlet when sequence comes to the end",
					"textcolor" : [ 0.50196099281311, 0.50196099281311, 0.50196099281311, 1.0 ]
				}

			}
, 			{
				"box" : 				{
					"bubble" : 1,
					"fontname" : "Arial",
					"fontsize" : 13.0,
					"id" : "obj-43",
					"maxclass" : "comment",
					"numinlets" : 1,
					"numoutlets" : 0,
					"patching_rect" : [ 625.0, 34.333343505859375, 199.0, 25.0 ],
					"text" : "'bang' to play at default speed"
				}

			}
, 			{
				"box" : 				{
					"bubble" : 1,
					"fontname" : "Arial",
					"fontsize" : 13.0,
					"id" : "obj-1",
					"maxclass" : "comment",
					"numinlets" : 1,
					"numoutlets" : 0,
					"patching_rect" : [ 665.0, 61.0, 259.0, 25.0 ],
					"text" : "'start' (tempo) with 1024 = normal speed"
				}

			}
, 			{
				"box" : 				{
					"bubble" : 1,
					"fontname" : "Arial",
					"fontsize" : 13.0,
					"id" : "obj-3",
					"maxclass" : "comment",
					"numinlets" : 1,
					"numoutlets" : 0,
					"patching_rect" : [ 665.0, 88.333343505859375, 180.0, 25.0 ],
					"text" : "stop recording and playing"
				}

			}
, 			{
				"box" : 				{
					"bubble" : 1,
					"fontname" : "Arial",
					"fontsize" : 13.0,
					"id" : "obj-6",
					"maxclass" : "comment",
					"numinlets" : 1,
					"numoutlets" : 0,
					"patching_rect" : [ 665.0, 114.333343505859375, 111.0, 25.0 ],
					"text" : "start recording"
				}

			}
, 			{
				"box" : 				{
					"bubble" : 1,
					"fontname" : "Arial",
					"fontsize" : 13.0,
					"id" : "obj-7",
					"maxclass" : "comment",
					"numinlets" : 1,
					"numoutlets" : 0,
					"patching_rect" : [ 665.0, 140.333343505859375, 189.0, 25.0 ],
					"text" : "set onset delay of first event"
				}

			}
, 			{
				"box" : 				{
					"bubble" : 1,
					"fontname" : "Arial",
					"fontsize" : 13.0,
					"id" : "obj-9",
					"maxclass" : "comment",
					"numinlets" : 1,
					"numoutlets" : 0,
					"patching_rect" : [ 665.0, 167.333343505859375, 239.0, 25.0 ],
					"text" : "print out first few events in sequence"
				}

			}
, 			{
				"box" : 				{
					"fontname" : "Arial",
					"fontsize" : 13.0,
					"id" : "obj-16",
					"maxclass" : "message",
					"numinlets" : 2,
					"numoutlets" : 1,
					"outlettype" : [ "" ],
					"patching_rect" : [ 605.0, 91.0, 59.0, 23.0 ],
					"text" : "stop"
				}

			}
, 			{
				"box" : 				{
					"id" : "obj-20",
					"maxclass" : "button",
					"numinlets" : 1,
					"numoutlets" : 1,
					"outlettype" : [ "bang" ],
					"parameter_enable" : 0,
					"patching_rect" : [ 605.0, 37.333343505859375, 20.0, 20.0 ]
				}

			}
, 			{
				"box" : 				{
					"fontname" : "Arial",
					"fontsize" : 13.0,
					"id" : "obj-21",
					"maxclass" : "message",
					"numinlets" : 2,
					"numoutlets" : 1,
					"outlettype" : [ "" ],
					"patching_rect" : [ 605.0, 64.0, 59.0, 23.0 ],
					"text" : "start 512"
				}

			}
, 			{
				"box" : 				{
					"fontname" : "Arial",
					"fontsize" : 13.0,
					"id" : "obj-22",
					"maxclass" : "message",
					"numinlets" : 2,
					"numoutlets" : 1,
					"outlettype" : [ "" ],
					"patching_rect" : [ 605.0, 117.333343505859375, 58.0, 23.0 ],
					"text" : "record"
				}

			}
, 			{
				"box" : 				{
					"fontname" : "Arial",
					"fontsize" : 13.0,
					"id" : "obj-23",
					"maxclass" : "message",
					"numinlets" : 2,
					"numoutlets" : 1,
					"outlettype" : [ "" ],
					"patching_rect" : [ 605.0, 143.333343505859375, 57.0, 23.0 ],
					"text" : "delay 0"
				}

			}
, 			{
				"box" : 				{
					"fontname" : "Arial",
					"fontsize" : 13.0,
					"id" : "obj-24",
					"maxclass" : "message",
					"numinlets" : 2,
					"numoutlets" : 1,
					"outlettype" : [ "" ],
					"patching_rect" : [ 605.0, 170.333343505859375, 58.0, 23.0 ],
					"text" : "print"
				}

			}
, 			{
				"box" : 				{
					"fontname" : "Arial",
					"fontsize" : 13.0,
					"id" : "obj-25",
					"maxclass" : "message",
					"numinlets" : 2,
					"numoutlets" : 1,
					"outlettype" : [ "" ],
					"patching_rect" : [ 605.0, 224.333343505859375, 57.0, 23.0 ],
					"text" : "write"
				}

			}
, 			{
				"box" : 				{
					"fontname" : "Arial",
					"fontsize" : 13.0,
					"id" : "obj-27",
					"maxclass" : "newobj",
					"numinlets" : 1,
					"numoutlets" : 2,
					"outlettype" : [ "int", "bang" ],
					"patching_rect" : [ 605.0, 275.0, 105.0, 23.0 ],
					"text" : "seq seq_sc.midi"
				}

			}
, 			{
				"box" : 				{
					"fontname" : "Arial",
					"fontsize" : 13.0,
					"id" : "obj-28",
					"maxclass" : "message",
					"numinlets" : 2,
					"numoutlets" : 1,
					"outlettype" : [ "" ],
					"patching_rect" : [ 605.0, 197.333343505859375, 57.0, 23.0 ],
					"text" : "read"
				}

			}
, 			{
				"box" : 				{
					"id" : "obj-33",
					"maxclass" : "button",
					"numinlets" : 1,
					"numoutlets" : 1,
					"outlettype" : [ "bang" ],
					"parameter_enable" : 0,
					"patching_rect" : [ 691.0, 343.0, 20.0, 20.0 ]
				}

			}
, 			{
				"box" : 				{
					"fontname" : "Arial",
					"fontsize" : 13.0,
					"id" : "obj-35",
					"maxclass" : "newobj",
					"numinlets" : 1,
					"numoutlets" : 0,
					"patching_rect" : [ 559.0, 453.0, 55.0, 23.0 ],
					"text" : "midiout"
				}

			}
, 			{
				"box" : 				{
					"border" : 0,
					"filename" : "helpargs.js",
					"id" : "obj-4",
					"ignoreclick" : 1,
					"jsarguments" : [ "seq" ],
					"maxclass" : "jsui",
					"numinlets" : 1,
					"numoutlets" : 1,
					"outlettype" : [ "" ],
					"parameter_enable" : 0,
					"patching_rect" : [ 710.0, 275.0, 187.921981811523438, 39.0 ]
				}

			}
, 			{
				"box" : 				{
					"data" : 					{
						"clips" : [ 							{
								"absolutepath" : "Macintosh HD:/Users/Chris/BitTorrent Sync/Chris/Projects/DifferenceEngine/Knowledge Lost Installation Jan 2018/KL_Installation/audio/default_0.wav",
								"filename" : "default_0.wav",
								"filekind" : "audiofile",
								"loop" : 0,
								"content_state" : 								{
									"speed" : [ 1.0 ],
									"timestretch" : [ 0 ],
									"pitchshift" : [ 1.0 ],
									"formantcorrection" : [ 0 ],
									"mode" : [ "basic" ],
									"originallengthms" : [ 0.0 ],
									"originallength" : [ 0.0, "ticks" ],
									"quality" : [ "basic" ],
									"slurtime" : [ 0.0 ],
									"originaltempo" : [ 120.0 ],
									"basictuning" : [ 440 ],
									"play" : [ 0 ],
									"pitchcorrection" : [ 0 ],
									"formant" : [ 1.0 ],
									"followglobaltempo" : [ 0 ]
								}

							}
 ]
					}
,
					"id" : "obj-17",
					"maxclass" : "playlist~",
					"numinlets" : 1,
					"numoutlets" : 5,
					"outlettype" : [ "signal", "signal", "signal", "", "dictionary" ],
					"patching_rect" : [ 49.0, 106.0, 150.0, 30.0 ]
				}

			}
, 			{
				"box" : 				{
					"id" : "obj-13",
					"maxclass" : "newobj",
					"numinlets" : 2,
					"numoutlets" : 0,
					"patching_rect" : [ 206.0, 436.0, 55.0, 22.0 ],
					"text" : "dac~ 3 4"
				}

			}
, 			{
				"box" : 				{
					"id" : "obj-12",
					"maxclass" : "newobj",
					"numinlets" : 2,
					"numoutlets" : 0,
					"patching_rect" : [ 59.0, 432.0, 55.0, 22.0 ],
					"text" : "dac~ 1 2"
				}

			}
 ],
		"lines" : [ 			{
				"patchline" : 				{
					"destination" : [ "obj-26", 0 ],
					"hidden" : 1,
					"midpoints" : [ 614.5, 116.166672000000005, 583.5, 116.166672000000005 ],
					"order" : 1,
					"source" : [ "obj-16", 0 ]
				}

			}
, 			{
				"patchline" : 				{
					"destination" : [ "obj-27", 0 ],
					"order" : 0,
					"source" : [ "obj-16", 0 ]
				}

			}
, 			{
				"patchline" : 				{
					"destination" : [ "obj-29", 1 ],
					"order" : 0,
					"source" : [ "obj-17", 0 ]
				}

			}
, 			{
				"patchline" : 				{
					"destination" : [ "obj-29", 0 ],
					"order" : 1,
					"source" : [ "obj-17", 0 ]
				}

			}
, 			{
				"patchline" : 				{
					"destination" : [ "obj-12", 1 ],
					"source" : [ "obj-2", 1 ]
				}

			}
, 			{
				"patchline" : 				{
					"destination" : [ "obj-12", 0 ],
					"source" : [ "obj-2", 0 ]
				}

			}
, 			{
				"patchline" : 				{
					"destination" : [ "obj-26", 0 ],
					"hidden" : 1,
					"midpoints" : [ 614.5, 62.833344000000011, 583.5, 62.833344000000011 ],
					"order" : 1,
					"source" : [ "obj-20", 0 ]
				}

			}
, 			{
				"patchline" : 				{
					"destination" : [ "obj-27", 0 ],
					"order" : 0,
					"source" : [ "obj-20", 0 ]
				}

			}
, 			{
				"patchline" : 				{
					"destination" : [ "obj-26", 0 ],
					"hidden" : 1,
					"midpoints" : [ 614.5, 89.666672000000005, 583.5, 89.666672000000005 ],
					"order" : 1,
					"source" : [ "obj-21", 0 ]
				}

			}
, 			{
				"patchline" : 				{
					"destination" : [ "obj-27", 0 ],
					"order" : 0,
					"source" : [ "obj-21", 0 ]
				}

			}
, 			{
				"patchline" : 				{
					"destination" : [ "obj-27", 0 ],
					"source" : [ "obj-22", 0 ]
				}

			}
, 			{
				"patchline" : 				{
					"destination" : [ "obj-27", 0 ],
					"source" : [ "obj-23", 0 ]
				}

			}
, 			{
				"patchline" : 				{
					"destination" : [ "obj-27", 0 ],
					"source" : [ "obj-24", 0 ]
				}

			}
, 			{
				"patchline" : 				{
					"destination" : [ "obj-27", 0 ],
					"source" : [ "obj-25", 0 ]
				}

			}
, 			{
				"patchline" : 				{
					"destination" : [ "obj-5", 0 ],
					"hidden" : 1,
					"midpoints" : [ 583.5, 302.666687000000024, 614.5, 302.666687000000024 ],
					"source" : [ "obj-26", 0 ]
				}

			}
, 			{
				"patchline" : 				{
					"destination" : [ "obj-33", 0 ],
					"source" : [ "obj-27", 1 ]
				}

			}
, 			{
				"patchline" : 				{
					"destination" : [ "obj-5", 0 ],
					"source" : [ "obj-27", 0 ]
				}

			}
, 			{
				"patchline" : 				{
					"destination" : [ "obj-27", 0 ],
					"source" : [ "obj-28", 0 ]
				}

			}
, 			{
				"patchline" : 				{
					"destination" : [ "obj-12", 1 ],
					"order" : 1,
					"source" : [ "obj-29", 1 ]
				}

			}
, 			{
				"patchline" : 				{
					"destination" : [ "obj-12", 0 ],
					"order" : 1,
					"source" : [ "obj-29", 0 ]
				}

			}
, 			{
				"patchline" : 				{
					"destination" : [ "obj-2", 1 ],
					"order" : 0,
					"source" : [ "obj-29", 1 ]
				}

			}
, 			{
				"patchline" : 				{
					"destination" : [ "obj-2", 0 ],
					"order" : 0,
					"source" : [ "obj-29", 0 ]
				}

			}
, 			{
				"patchline" : 				{
					"destination" : [ "obj-29", 2 ],
					"source" : [ "obj-5", 0 ]
				}

			}
 ],
		"parameters" : 		{
			"obj-29" : [ "amxd~", "amxd~", 0 ],
			"obj-2" : [ "vst~", "vst~", 0 ],
			"parameterbanks" : 			{

			}

		}
,
		"dependency_cache" : [ 			{
				"name" : "default_0.wav",
				"bootpath" : "~/BitTorrent Sync/Chris/Projects/DifferenceEngine/Knowledge Lost Installation Jan 2018/KL_Installation/audio",
				"patcherrelativepath" : "./audio",
				"type" : "WAVE",
				"implicit" : 1
			}
, 			{
				"name" : "helpargs.js",
				"bootpath" : "C74:/help/resources",
				"type" : "TEXT",
				"implicit" : 1
			}
, 			{
				"name" : "Poly Vocoder.amxd.maxsnap",
				"bootpath" : "~/Documents/Max 8/Snapshots",
				"patcherrelativepath" : "../../../../../../Documents/Max 8/Snapshots",
				"type" : "mx@s",
				"implicit" : 1
			}
, 			{
				"name" : "ValhallaRoom_20190119.maxsnap",
				"bootpath" : "~/Documents/Max 8/Snapshots",
				"patcherrelativepath" : "../../../../../../Documents/Max 8/Snapshots",
				"type" : "mx@s",
				"implicit" : 1
			}
 ],
		"autosave" : 0
	}

}
