{
	"patcher" : 	{
		"fileversion" : 1,
		"appversion" : 		{
			"major" : 8,
			"minor" : 0,
			"revision" : 1,
			"architecture" : "x64",
			"modernui" : 1
		}
,
		"classnamespace" : "box",
		"rect" : [ 485.0, 98.0, 947.0, 787.0 ],
		"bglocked" : 0,
		"openinpresentation" : 0,
		"default_fontsize" : 12.0,
		"default_fontface" : 0,
		"default_fontname" : "Arial",
		"gridonopen" : 1,
		"gridsize" : [ 15.0, 15.0 ],
		"gridsnaponopen" : 1,
		"objectsnaponopen" : 1,
		"statusbarvisible" : 2,
		"toolbarvisible" : 1,
		"lefttoolbarpinned" : 0,
		"toptoolbarpinned" : 0,
		"righttoolbarpinned" : 0,
		"bottomtoolbarpinned" : 0,
		"toolbars_unpinned_last_save" : 0,
		"tallnewobj" : 0,
		"boxanimatetime" : 200,
		"enablehscroll" : 1,
		"enablevscroll" : 1,
		"devicewidth" : 0.0,
		"description" : "",
		"digest" : "",
		"tags" : "",
		"style" : "solarized?",
		"subpatcher_template" : "",
		"boxes" : [ 			{
				"box" : 				{
					"id" : "obj-19",
					"maxclass" : "message",
					"numinlets" : 2,
					"numoutlets" : 1,
					"outlettype" : [ "" ],
					"patching_rect" : [ 834.68084716796875, 361.0, 91.0, 22.0 ],
					"text" : "7399 1 116 200"
				}

			}
, 			{
				"box" : 				{
					"id" : "obj-18",
					"maxclass" : "message",
					"numinlets" : 2,
					"numoutlets" : 1,
					"outlettype" : [ "" ],
					"patching_rect" : [ 724.68084716796875, 361.0, 98.0, 22.0 ],
					"text" : "7399 255 116 20"
				}

			}
, 			{
				"box" : 				{
					"id" : "obj-17",
					"maxclass" : "message",
					"numinlets" : 2,
					"numoutlets" : 1,
					"outlettype" : [ "" ],
					"patching_rect" : [ 619.0, 361.0, 98.0, 22.0 ],
					"presentation_linecount" : 3,
					"text" : "7399 125 116 20"
				}

			}
, 			{
				"box" : 				{
					"id" : "obj-16",
					"maxclass" : "newobj",
					"numinlets" : 1,
					"numoutlets" : 2,
					"outlettype" : [ "bang", "int" ],
					"patching_rect" : [ 309.0, 216.0, 32.0, 22.0 ],
					"text" : "t b 0"
				}

			}
, 			{
				"box" : 				{
					"id" : "obj-15",
					"maxclass" : "newobj",
					"numinlets" : 1,
					"numoutlets" : 2,
					"outlettype" : [ "bang", "int" ],
					"patching_rect" : [ 457.0, 317.0, 32.0, 22.0 ],
					"text" : "t b 0"
				}

			}
, 			{
				"box" : 				{
					"id" : "obj-14",
					"maxclass" : "message",
					"numinlets" : 2,
					"numoutlets" : 1,
					"outlettype" : [ "" ],
					"patching_rect" : [ 98.0, 202.0, 29.5, 22.0 ],
					"text" : "1"
				}

			}
, 			{
				"box" : 				{
					"id" : "obj-11",
					"maxclass" : "newobj",
					"numinlets" : 2,
					"numoutlets" : 1,
					"outlettype" : [ "bang" ],
					"patching_rect" : [ 98.0, 239.0, 69.0, 22.0 ],
					"text" : "metro 2000"
				}

			}
, 			{
				"box" : 				{
					"id" : "obj-10",
					"maxclass" : "newobj",
					"numinlets" : 1,
					"numoutlets" : 2,
					"outlettype" : [ "", "" ],
					"patching_rect" : [ 98.0, 272.0, 46.0, 22.0 ],
					"text" : "cycle 2"
				}

			}
, 			{
				"box" : 				{
					"id" : "obj-32",
					"maxclass" : "message",
					"numinlets" : 2,
					"numoutlets" : 1,
					"outlettype" : [ "" ],
					"patching_rect" : [ 457.0, 361.0, 150.0, 22.0 ],
					"presentation_linecount" : 3,
					"text" : "43337 253 253 16"
				}

			}
, 			{
				"box" : 				{
					"id" : "obj-8",
					"maxclass" : "newobj",
					"numinlets" : 5,
					"numoutlets" : 5,
					"outlettype" : [ "bang", "bang", "bang", "bang", "" ],
					"patching_rect" : [ 455.0, 285.0, 64.0, 22.0 ],
					"text" : "sel 0 1 2 3"
				}

			}
, 			{
				"box" : 				{
					"id" : "obj-2",
					"maxclass" : "newobj",
					"numinlets" : 0,
					"numoutlets" : 1,
					"outlettype" : [ "" ],
					"patching_rect" : [ 455.0, 253.0, 48.0, 22.0 ],
					"text" : "r toHue"
				}

			}
, 			{
				"box" : 				{
					"id" : "obj-6",
					"maxclass" : "newobj",
					"numinlets" : 3,
					"numoutlets" : 3,
					"outlettype" : [ "bang", "bang", "" ],
					"patching_rect" : [ 292.0, 169.0, 44.0, 22.0 ],
					"text" : "sel 0 1"
				}

			}
, 			{
				"box" : 				{
					"id" : "obj-25",
					"maxclass" : "newobj",
					"numinlets" : 0,
					"numoutlets" : 1,
					"outlettype" : [ "" ],
					"patching_rect" : [ 292.0, 119.0, 75.0, 22.0 ],
					"text" : "r piActivated"
				}

			}
, 			{
				"box" : 				{
					"id" : "obj-5",
					"maxclass" : "newobj",
					"numinlets" : 2,
					"numoutlets" : 1,
					"outlettype" : [ "bang" ],
					"patching_rect" : [ 11.0, 347.0, 67.0, 22.0 ],
					"text" : "delay 5000"
				}

			}
, 			{
				"box" : 				{
					"id" : "obj-4",
					"maxclass" : "newobj",
					"numinlets" : 1,
					"numoutlets" : 1,
					"outlettype" : [ "bang" ],
					"patching_rect" : [ 11.0, 268.0, 58.0, 22.0 ],
					"text" : "loadbang"
				}

			}
, 			{
				"box" : 				{
					"id" : "obj-3",
					"maxclass" : "newobj",
					"numinlets" : 0,
					"numoutlets" : 1,
					"outlettype" : [ "" ],
					"patcher" : 					{
						"fileversion" : 1,
						"appversion" : 						{
							"major" : 8,
							"minor" : 0,
							"revision" : 1,
							"architecture" : "x64",
							"modernui" : 1
						}
,
						"classnamespace" : "box",
						"rect" : [ 59.0, 104.0, 640.0, 480.0 ],
						"bglocked" : 0,
						"openinpresentation" : 0,
						"default_fontsize" : 12.0,
						"default_fontface" : 0,
						"default_fontname" : "Arial",
						"gridonopen" : 1,
						"gridsize" : [ 15.0, 15.0 ],
						"gridsnaponopen" : 1,
						"objectsnaponopen" : 1,
						"statusbarvisible" : 2,
						"toolbarvisible" : 1,
						"lefttoolbarpinned" : 0,
						"toptoolbarpinned" : 0,
						"righttoolbarpinned" : 0,
						"bottomtoolbarpinned" : 0,
						"toolbars_unpinned_last_save" : 0,
						"tallnewobj" : 0,
						"boxanimatetime" : 200,
						"enablehscroll" : 1,
						"enablevscroll" : 1,
						"devicewidth" : 0.0,
						"description" : "",
						"digest" : "",
						"tags" : "",
						"style" : "",
						"subpatcher_template" : "",
						"visible" : 1,
						"boxes" : [ 							{
								"box" : 								{
									"id" : "obj-32",
									"linecount" : 3,
									"maxclass" : "message",
									"numinlets" : 2,
									"numoutlets" : 1,
									"outlettype" : [ "" ],
									"patching_rect" : [ 248.0, 421.191497802734375, 50.0, 49.0 ],
									"text" : "5813 253 253 0"
								}

							}
, 							{
								"box" : 								{
									"id" : "obj-13",
									"maxclass" : "button",
									"numinlets" : 1,
									"numoutlets" : 1,
									"outlettype" : [ "bang" ],
									"parameter_enable" : 0,
									"patching_rect" : [ 229.0, 203.191497802734375, 24.0, 24.0 ]
								}

							}
, 							{
								"box" : 								{
									"id" : "obj-83",
									"maxclass" : "number",
									"numinlets" : 1,
									"numoutlets" : 2,
									"outlettype" : [ "", "bang" ],
									"parameter_enable" : 0,
									"patching_rect" : [ 309.0, 257.191497802734375, 50.0, 22.0 ]
								}

							}
, 							{
								"box" : 								{
									"id" : "obj-53",
									"maxclass" : "slider",
									"numinlets" : 1,
									"numoutlets" : 1,
									"outlettype" : [ "" ],
									"parameter_enable" : 1,
									"patching_rect" : [ 283.0, 105.0, 20.0, 140.0 ],
									"saved_attribute_attributes" : 									{
										"valueof" : 										{
											"parameter_shortname" : "slider",
											"parameter_type" : 0,
											"parameter_longname" : "slider[5]",
											"parameter_mmax" : 99.0
										}

									}
,
									"size" : 100.0,
									"varname" : "slider[5]"
								}

							}
, 							{
								"box" : 								{
									"id" : "obj-55",
									"maxclass" : "newobj",
									"numinlets" : 2,
									"numoutlets" : 2,
									"outlettype" : [ "", "" ],
									"patching_rect" : [ 193.5, 326.0, 55.0, 22.0 ],
									"text" : "zl.ecils 1"
								}

							}
, 							{
								"box" : 								{
									"id" : "obj-58",
									"maxclass" : "newobj",
									"numinlets" : 2,
									"numoutlets" : 1,
									"outlettype" : [ "" ],
									"patching_rect" : [ 193.5, 293.333343505859375, 59.0, 22.0 ],
									"text" : "thresh 50"
								}

							}
, 							{
								"box" : 								{
									"id" : "obj-59",
									"maxclass" : "newobj",
									"numinlets" : 2,
									"numoutlets" : 2,
									"outlettype" : [ "", "" ],
									"patching_rect" : [ 122.5, 326.0, 55.0, 22.0 ],
									"text" : "zl.ecils 1"
								}

							}
, 							{
								"box" : 								{
									"id" : "obj-60",
									"maxclass" : "newobj",
									"numinlets" : 2,
									"numoutlets" : 1,
									"outlettype" : [ "" ],
									"patching_rect" : [ 122.5, 293.333343505859375, 59.0, 22.0 ],
									"text" : "thresh 50"
								}

							}
, 							{
								"box" : 								{
									"id" : "obj-61",
									"maxclass" : "newobj",
									"numinlets" : 4,
									"numoutlets" : 1,
									"outlettype" : [ "" ],
									"patching_rect" : [ 86.0, 365.75, 68.0, 22.0 ],
									"text" : "pak 0 0 0 0"
								}

							}
, 							{
								"box" : 								{
									"id" : "obj-62",
									"maxclass" : "slider",
									"numinlets" : 1,
									"numoutlets" : 1,
									"outlettype" : [ "" ],
									"parameter_enable" : 1,
									"patching_rect" : [ 150.0, 100.0, 20.0, 140.0 ],
									"saved_attribute_attributes" : 									{
										"valueof" : 										{
											"parameter_shortname" : "slider[3]",
											"parameter_type" : 0,
											"parameter_longname" : "slider[6]",
											"parameter_mmax" : 253.0
										}

									}
,
									"size" : 254.0,
									"varname" : "slider[6]"
								}

							}
, 							{
								"box" : 								{
									"id" : "obj-64",
									"maxclass" : "slider",
									"numinlets" : 1,
									"numoutlets" : 1,
									"outlettype" : [ "" ],
									"parameter_enable" : 1,
									"patching_rect" : [ 95.0, 100.0, 20.0, 140.0 ],
									"saved_attribute_attributes" : 									{
										"valueof" : 										{
											"parameter_shortname" : "slider[2]",
											"parameter_type" : 0,
											"parameter_longname" : "slider[7]",
											"parameter_mmax" : 253.0
										}

									}
,
									"size" : 254.0,
									"varname" : "slider[7]"
								}

							}
, 							{
								"box" : 								{
									"id" : "obj-65",
									"maxclass" : "newobj",
									"numinlets" : 2,
									"numoutlets" : 2,
									"outlettype" : [ "", "" ],
									"patching_rect" : [ 50.0, 326.0, 55.0, 22.0 ],
									"text" : "zl.ecils 1"
								}

							}
, 							{
								"box" : 								{
									"id" : "obj-67",
									"maxclass" : "newobj",
									"numinlets" : 2,
									"numoutlets" : 1,
									"outlettype" : [ "" ],
									"patching_rect" : [ 50.0, 293.333343505859375, 59.0, 22.0 ],
									"text" : "thresh 50"
								}

							}
, 							{
								"box" : 								{
									"id" : "obj-69",
									"maxclass" : "slider",
									"numinlets" : 1,
									"numoutlets" : 1,
									"outlettype" : [ "" ],
									"parameter_enable" : 1,
									"patching_rect" : [ 50.0, 100.0, 20.0, 140.0 ],
									"saved_attribute_attributes" : 									{
										"valueof" : 										{
											"parameter_shortname" : "slider[1]",
											"parameter_type" : 0,
											"parameter_longname" : "slider[8]",
											"parameter_mmax" : 65534.0
										}

									}
,
									"size" : 65535.0,
									"varname" : "slider[8]"
								}

							}
, 							{
								"box" : 								{
									"comment" : "",
									"id" : "obj-2",
									"index" : 1,
									"maxclass" : "outlet",
									"numinlets" : 1,
									"numoutlets" : 0,
									"patching_rect" : [ 86.0, 530.19146728515625, 30.0, 30.0 ]
								}

							}
 ],
						"lines" : [ 							{
								"patchline" : 								{
									"destination" : [ "obj-61", 0 ],
									"source" : [ "obj-13", 0 ]
								}

							}
, 							{
								"patchline" : 								{
									"destination" : [ "obj-61", 3 ],
									"order" : 1,
									"source" : [ "obj-53", 0 ]
								}

							}
, 							{
								"patchline" : 								{
									"destination" : [ "obj-83", 0 ],
									"order" : 0,
									"source" : [ "obj-53", 0 ]
								}

							}
, 							{
								"patchline" : 								{
									"destination" : [ "obj-61", 2 ],
									"source" : [ "obj-55", 1 ]
								}

							}
, 							{
								"patchline" : 								{
									"destination" : [ "obj-55", 0 ],
									"source" : [ "obj-58", 0 ]
								}

							}
, 							{
								"patchline" : 								{
									"destination" : [ "obj-61", 1 ],
									"source" : [ "obj-59", 1 ]
								}

							}
, 							{
								"patchline" : 								{
									"destination" : [ "obj-59", 0 ],
									"source" : [ "obj-60", 0 ]
								}

							}
, 							{
								"patchline" : 								{
									"destination" : [ "obj-2", 0 ],
									"order" : 1,
									"source" : [ "obj-61", 0 ]
								}

							}
, 							{
								"patchline" : 								{
									"destination" : [ "obj-32", 1 ],
									"order" : 0,
									"source" : [ "obj-61", 0 ]
								}

							}
, 							{
								"patchline" : 								{
									"destination" : [ "obj-58", 0 ],
									"source" : [ "obj-62", 0 ]
								}

							}
, 							{
								"patchline" : 								{
									"destination" : [ "obj-60", 0 ],
									"source" : [ "obj-64", 0 ]
								}

							}
, 							{
								"patchline" : 								{
									"destination" : [ "obj-61", 0 ],
									"source" : [ "obj-65", 1 ]
								}

							}
, 							{
								"patchline" : 								{
									"destination" : [ "obj-65", 0 ],
									"source" : [ "obj-67", 0 ]
								}

							}
, 							{
								"patchline" : 								{
									"destination" : [ "obj-67", 0 ],
									"source" : [ "obj-69", 0 ]
								}

							}
 ]
					}
,
					"patching_rect" : [ 309.5, 403.808502197265625, 66.0, 22.0 ],
					"saved_object_attributes" : 					{
						"description" : "",
						"digest" : "",
						"globalpatchername" : "",
						"tags" : ""
					}
,
					"text" : "p buildCue"
				}

			}
, 			{
				"box" : 				{
					"id" : "obj-1",
					"maxclass" : "newobj",
					"numinlets" : 0,
					"numoutlets" : 0,
					"patcher" : 					{
						"fileversion" : 1,
						"appversion" : 						{
							"major" : 8,
							"minor" : 0,
							"revision" : 1,
							"architecture" : "x64",
							"modernui" : 1
						}
,
						"classnamespace" : "box",
						"rect" : [ 0.0, 0.0, 640.0, 480.0 ],
						"bglocked" : 0,
						"openinpresentation" : 0,
						"default_fontsize" : 12.0,
						"default_fontface" : 0,
						"default_fontname" : "Arial",
						"gridonopen" : 1,
						"gridsize" : [ 15.0, 15.0 ],
						"gridsnaponopen" : 1,
						"objectsnaponopen" : 1,
						"statusbarvisible" : 2,
						"toolbarvisible" : 1,
						"lefttoolbarpinned" : 0,
						"toptoolbarpinned" : 0,
						"righttoolbarpinned" : 0,
						"bottomtoolbarpinned" : 0,
						"toolbars_unpinned_last_save" : 0,
						"tallnewobj" : 0,
						"boxanimatetime" : 200,
						"enablehscroll" : 1,
						"enablevscroll" : 1,
						"devicewidth" : 0.0,
						"description" : "",
						"digest" : "",
						"tags" : "",
						"style" : "",
						"subpatcher_template" : "",
						"boxes" : [ 							{
								"box" : 								{
									"id" : "obj-70",
									"maxclass" : "newobj",
									"numinlets" : 0,
									"numoutlets" : 0,
									"patcher" : 									{
										"fileversion" : 1,
										"appversion" : 										{
											"major" : 8,
											"minor" : 0,
											"revision" : 1,
											"architecture" : "x64",
											"modernui" : 1
										}
,
										"classnamespace" : "box",
										"rect" : [ 0.0, 0.0, 640.0, 480.0 ],
										"bglocked" : 0,
										"openinpresentation" : 0,
										"default_fontsize" : 12.0,
										"default_fontface" : 0,
										"default_fontname" : "Arial",
										"gridonopen" : 1,
										"gridsize" : [ 15.0, 15.0 ],
										"gridsnaponopen" : 1,
										"objectsnaponopen" : 1,
										"statusbarvisible" : 2,
										"toolbarvisible" : 1,
										"lefttoolbarpinned" : 0,
										"toptoolbarpinned" : 0,
										"righttoolbarpinned" : 0,
										"bottomtoolbarpinned" : 0,
										"toolbars_unpinned_last_save" : 0,
										"tallnewobj" : 0,
										"boxanimatetime" : 200,
										"enablehscroll" : 1,
										"enablevscroll" : 1,
										"devicewidth" : 0.0,
										"description" : "",
										"digest" : "",
										"tags" : "",
										"style" : "",
										"subpatcher_template" : "",
										"boxes" : [ 											{
												"box" : 												{
													"id" : "obj-8",
													"maxclass" : "button",
													"numinlets" : 1,
													"numoutlets" : 1,
													"outlettype" : [ "bang" ],
													"parameter_enable" : 0,
													"patching_rect" : [ 224.0, 408.166656494140625, 24.0, 24.0 ]
												}

											}
, 											{
												"box" : 												{
													"id" : "obj-5",
													"maxclass" : "newobj",
													"numinlets" : 1,
													"numoutlets" : 1,
													"outlettype" : [ "" ],
													"patching_rect" : [ 220.5, 440.166656494140625, 31.0, 22.0 ],
													"text" : "v url"
												}

											}
, 											{
												"box" : 												{
													"id" : "obj-4",
													"maxclass" : "newobj",
													"numinlets" : 1,
													"numoutlets" : 1,
													"outlettype" : [ "" ],
													"patching_rect" : [ 210.0, 471.166656494140625, 509.0, 22.0 ],
													"style" : "blueNight",
													"text" : "sprintf set url http://%s/api/vDJbI9iCdvv0kDOQlizEc9avsFepw2NL4kUmZr3P/groups/10/action"
												}

											}
, 											{
												"box" : 												{
													"id" : "obj-122",
													"maxclass" : "slider",
													"numinlets" : 1,
													"numoutlets" : 1,
													"outlettype" : [ "" ],
													"parameter_enable" : 1,
													"patching_rect" : [ 494.0, 100.0, 20.0, 140.0 ],
													"saved_attribute_attributes" : 													{
														"valueof" : 														{
															"parameter_shortname" : "slider",
															"parameter_type" : 0,
															"parameter_longname" : "slider",
															"parameter_mmax" : 99.0
														}

													}
,
													"size" : 100.0,
													"varname" : "slider"
												}

											}
, 											{
												"box" : 												{
													"id" : "obj-119",
													"maxclass" : "newobj",
													"numinlets" : 2,
													"numoutlets" : 2,
													"outlettype" : [ "", "" ],
													"patching_rect" : [ 681.5, 403.166656494140625, 55.0, 22.0 ],
													"text" : "zl.ecils 1"
												}

											}
, 											{
												"box" : 												{
													"id" : "obj-120",
													"maxclass" : "newobj",
													"numinlets" : 2,
													"numoutlets" : 1,
													"outlettype" : [ "" ],
													"patching_rect" : [ 681.5, 370.5, 59.0, 22.0 ],
													"text" : "thresh 50"
												}

											}
, 											{
												"box" : 												{
													"id" : "obj-117",
													"maxclass" : "newobj",
													"numinlets" : 2,
													"numoutlets" : 2,
													"outlettype" : [ "", "" ],
													"patching_rect" : [ 610.5, 403.166656494140625, 55.0, 22.0 ],
													"text" : "zl.ecils 1"
												}

											}
, 											{
												"box" : 												{
													"id" : "obj-118",
													"maxclass" : "newobj",
													"numinlets" : 2,
													"numoutlets" : 1,
													"outlettype" : [ "" ],
													"patching_rect" : [ 610.5, 370.5, 59.0, 22.0 ],
													"text" : "thresh 50"
												}

											}
, 											{
												"box" : 												{
													"id" : "obj-116",
													"maxclass" : "newobj",
													"numinlets" : 4,
													"numoutlets" : 1,
													"outlettype" : [ "" ],
													"patching_rect" : [ 574.0, 442.916656494140625, 68.0, 22.0 ],
													"text" : "pak 0 0 0 0"
												}

											}
, 											{
												"box" : 												{
													"id" : "obj-115",
													"maxclass" : "slider",
													"numinlets" : 1,
													"numoutlets" : 1,
													"outlettype" : [ "" ],
													"parameter_enable" : 1,
													"patching_rect" : [ 638.0, 177.166656494140625, 20.0, 140.0 ],
													"saved_attribute_attributes" : 													{
														"valueof" : 														{
															"parameter_shortname" : "slider[3]",
															"parameter_type" : 0,
															"parameter_longname" : "slider[3]",
															"parameter_mmax" : 253.0
														}

													}
,
													"size" : 254.0,
													"varname" : "slider[3]"
												}

											}
, 											{
												"box" : 												{
													"id" : "obj-114",
													"maxclass" : "slider",
													"numinlets" : 1,
													"numoutlets" : 1,
													"outlettype" : [ "" ],
													"parameter_enable" : 1,
													"patching_rect" : [ 583.0, 177.166656494140625, 20.0, 140.0 ],
													"saved_attribute_attributes" : 													{
														"valueof" : 														{
															"parameter_shortname" : "slider[2]",
															"parameter_type" : 0,
															"parameter_longname" : "slider[2]",
															"parameter_mmax" : 253.0
														}

													}
,
													"size" : 254.0,
													"varname" : "slider[2]"
												}

											}
, 											{
												"box" : 												{
													"id" : "obj-112",
													"maxclass" : "message",
													"numinlets" : 2,
													"numoutlets" : 1,
													"outlettype" : [ "" ],
													"patching_rect" : [ 170.5, 168.166656494140625, 43.0, 22.0 ],
													"text" : "lselect"
												}

											}
, 											{
												"box" : 												{
													"id" : "obj-110",
													"maxclass" : "button",
													"numinlets" : 1,
													"numoutlets" : 1,
													"outlettype" : [ "bang" ],
													"parameter_enable" : 0,
													"patching_rect" : [ 234.0, 176.166656494140625, 24.0, 24.0 ]
												}

											}
, 											{
												"box" : 												{
													"id" : "obj-108",
													"maxclass" : "message",
													"numinlets" : 2,
													"numoutlets" : 1,
													"outlettype" : [ "" ],
													"patching_rect" : [ 150.0, 206.166656494140625, 35.0, 22.0 ],
													"text" : "none"
												}

											}
, 											{
												"box" : 												{
													"id" : "obj-106",
													"maxclass" : "message",
													"numinlets" : 2,
													"numoutlets" : 1,
													"outlettype" : [ "" ],
													"patching_rect" : [ 187.0, 206.166656494140625, 40.0, 22.0 ],
													"text" : "select"
												}

											}
, 											{
												"box" : 												{
													"id" : "obj-104",
													"maxclass" : "message",
													"numinlets" : 2,
													"numoutlets" : 1,
													"outlettype" : [ "" ],
													"patching_rect" : [ 158.0, 240.0, 68.0, 22.0 ],
													"text" : "set alert $1"
												}

											}
, 											{
												"box" : 												{
													"id" : "obj-100",
													"maxclass" : "newobj",
													"numinlets" : 2,
													"numoutlets" : 2,
													"outlettype" : [ "", "" ],
													"patching_rect" : [ 538.0, 403.166656494140625, 55.0, 22.0 ],
													"text" : "zl.ecils 1"
												}

											}
, 											{
												"box" : 												{
													"id" : "obj-93",
													"maxclass" : "newobj",
													"numinlets" : 2,
													"numoutlets" : 1,
													"outlettype" : [ "" ],
													"patching_rect" : [ 538.0, 370.5, 59.0, 22.0 ],
													"text" : "thresh 50"
												}

											}
, 											{
												"box" : 												{
													"id" : "obj-90",
													"maxclass" : "number",
													"numinlets" : 1,
													"numoutlets" : 2,
													"outlettype" : [ "", "bang" ],
													"parameter_enable" : 0,
													"patching_rect" : [ 332.0, 152.166656494140625, 50.0, 22.0 ]
												}

											}
, 											{
												"box" : 												{
													"id" : "obj-88",
													"maxclass" : "message",
													"numinlets" : 2,
													"numoutlets" : 1,
													"outlettype" : [ "" ],
													"patching_rect" : [ 332.0, 182.666656494140625, 116.0, 22.0 ],
													"text" : "set transitiontime $1"
												}

											}
, 											{
												"box" : 												{
													"id" : "obj-86",
													"maxclass" : "message",
													"numinlets" : 2,
													"numoutlets" : 1,
													"outlettype" : [ "" ],
													"patching_rect" : [ 74.0, 288.666656494140625, 67.0, 22.0 ],
													"text" : "set sat 255"
												}

											}
, 											{
												"box" : 												{
													"id" : "obj-84",
													"maxclass" : "message",
													"numinlets" : 2,
													"numoutlets" : 1,
													"outlettype" : [ "" ],
													"patching_rect" : [ 132.0, 177.166656494140625, 35.0, 22.0 ],
													"text" : "none"
												}

											}
, 											{
												"box" : 												{
													"id" : "obj-82",
													"maxclass" : "message",
													"numinlets" : 2,
													"numoutlets" : 1,
													"outlettype" : [ "" ],
													"patching_rect" : [ 50.0, 177.166656494140625, 57.0, 22.0 ],
													"text" : "colorloop"
												}

											}
, 											{
												"box" : 												{
													"id" : "obj-80",
													"maxclass" : "message",
													"numinlets" : 2,
													"numoutlets" : 1,
													"outlettype" : [ "" ],
													"patching_rect" : [ 62.0, 211.166656494140625, 74.0, 22.0 ],
													"text" : "set effect $1"
												}

											}
, 											{
												"box" : 												{
													"id" : "obj-78",
													"maxclass" : "newobj",
													"numinlets" : 1,
													"numoutlets" : 2,
													"outlettype" : [ "bang", "" ],
													"patching_rect" : [ 310.25, 245.0, 87.75, 22.0 ],
													"text" : "t b l"
												}

											}
, 											{
												"box" : 												{
													"id" : "obj-77",
													"maxclass" : "slider",
													"numinlets" : 1,
													"numoutlets" : 1,
													"outlettype" : [ "" ],
													"parameter_enable" : 1,
													"patching_rect" : [ 538.0, 177.166656494140625, 20.0, 140.0 ],
													"saved_attribute_attributes" : 													{
														"valueof" : 														{
															"parameter_shortname" : "slider[1]",
															"parameter_type" : 0,
															"parameter_longname" : "slider[1]",
															"parameter_mmax" : 65534.0
														}

													}
,
													"size" : 65535.0,
													"varname" : "slider[1]"
												}

											}
, 											{
												"box" : 												{
													"id" : "obj-73",
													"linecount" : 2,
													"maxclass" : "message",
													"numinlets" : 2,
													"numoutlets" : 1,
													"outlettype" : [ "" ],
													"patching_rect" : [ 358.0, 279.5, 166.0, 35.0 ],
													"text" : "set hue $1, set bri $2, set sat $3"
												}

											}
, 											{
												"box" : 												{
													"id" : "obj-68",
													"maxclass" : "message",
													"numinlets" : 2,
													"numoutlets" : 1,
													"outlettype" : [ "" ],
													"patching_rect" : [ 363.0, 326.166656494140625, 35.0, 22.0 ],
													"text" : "clear"
												}

											}
, 											{
												"box" : 												{
													"id" : "obj-66",
													"maxclass" : "message",
													"numinlets" : 2,
													"numoutlets" : 1,
													"outlettype" : [ "" ],
													"patching_rect" : [ 268.75, 189.166656494140625, 29.5, 22.0 ],
													"text" : "100"
												}

											}
, 											{
												"box" : 												{
													"id" : "obj-57",
													"maxclass" : "newobj",
													"numinlets" : 1,
													"numoutlets" : 2,
													"outlettype" : [ "bang", "bang" ],
													"patching_rect" : [ 240.0, 277.0, 32.0, 22.0 ],
													"text" : "t b b"
												}

											}
, 											{
												"box" : 												{
													"id" : "obj-56",
													"maxclass" : "message",
													"numinlets" : 2,
													"numoutlets" : 1,
													"outlettype" : [ "" ],
													"patching_rect" : [ 260.0, 225.166656494140625, 58.0, 22.0 ],
													"text" : "set bri $1"
												}

											}
, 											{
												"box" : 												{
													"id" : "obj-54",
													"maxclass" : "dict.view",
													"numinlets" : 1,
													"numoutlets" : 0,
													"patching_rect" : [ 260.0, 570.1666259765625, 459.0, 527.0 ],
													"style" : "blueNight"
												}

											}
, 											{
												"box" : 												{
													"id" : "obj-47",
													"maxclass" : "button",
													"numinlets" : 1,
													"numoutlets" : 1,
													"outlettype" : [ "bang" ],
													"parameter_enable" : 0,
													"patching_rect" : [ 396.0, 362.5, 24.0, 24.0 ]
												}

											}
, 											{
												"box" : 												{
													"fontname" : "Arial",
													"fontsize" : 13.0,
													"id" : "obj-44",
													"maxclass" : "newobj",
													"numinlets" : 2,
													"numoutlets" : 4,
													"outlettype" : [ "dictionary", "", "", "" ],
													"patching_rect" : [ 260.0, 310.791656494140625, 76.0, 23.0 ],
													"saved_object_attributes" : 													{
														"embed" : 0,
														"parameter_enable" : 0,
														"parameter_mappable" : 0
													}
,
													"text" : "dict params"
												}

											}
, 											{
												"box" : 												{
													"id" : "obj-41",
													"maxclass" : "newobj",
													"numinlets" : 1,
													"numoutlets" : 1,
													"outlettype" : [ "" ],
													"patching_rect" : [ 260.0, 370.5, 130.0, 22.0 ],
													"style" : "blueNight-6",
													"text" : "prepend set post_data"
												}

											}
, 											{
												"box" : 												{
													"id" : "obj-39",
													"maxclass" : "newobj",
													"numinlets" : 1,
													"numoutlets" : 2,
													"outlettype" : [ "dictionary", "" ],
													"patching_rect" : [ 260.0, 508.166656494140625, 47.0, 22.0 ],
													"style" : "blueNight",
													"text" : "maxurl"
												}

											}
, 											{
												"box" : 												{
													"data" : 													{
														"url" : "http://169.254.6.215/api/vDJbI9iCdvv0kDOQlizEc9avsFepw2NL4kUmZr3P/groups/10/action",
														"http_method" : "put",
														"parse_type" : "JSON",
														"post_data" : 														{
															"transitiontime" : 0,
															"hue" : 63518,
															"bri" : 176,
															"sat" : 84
														}

													}
,
													"id" : "obj-38",
													"maxclass" : "newobj",
													"numinlets" : 2,
													"numoutlets" : 4,
													"outlettype" : [ "dictionary", "", "", "" ],
													"patching_rect" : [ 260.0, 442.166656494140625, 181.0, 22.0 ],
													"saved_object_attributes" : 													{
														"embed" : 1,
														"parameter_enable" : 0,
														"parameter_mappable" : 0
													}
,
													"text" : "dict alexroomchange @embed 1"
												}

											}
 ],
										"lines" : [ 											{
												"patchline" : 												{
													"destination" : [ "obj-116", 0 ],
													"source" : [ "obj-100", 1 ]
												}

											}
, 											{
												"patchline" : 												{
													"destination" : [ "obj-44", 0 ],
													"source" : [ "obj-104", 0 ]
												}

											}
, 											{
												"patchline" : 												{
													"destination" : [ "obj-104", 0 ],
													"source" : [ "obj-106", 0 ]
												}

											}
, 											{
												"patchline" : 												{
													"destination" : [ "obj-104", 0 ],
													"source" : [ "obj-108", 0 ]
												}

											}
, 											{
												"patchline" : 												{
													"destination" : [ "obj-57", 0 ],
													"source" : [ "obj-110", 0 ]
												}

											}
, 											{
												"patchline" : 												{
													"destination" : [ "obj-104", 0 ],
													"source" : [ "obj-112", 0 ]
												}

											}
, 											{
												"patchline" : 												{
													"destination" : [ "obj-118", 0 ],
													"source" : [ "obj-114", 0 ]
												}

											}
, 											{
												"patchline" : 												{
													"destination" : [ "obj-120", 0 ],
													"source" : [ "obj-115", 0 ]
												}

											}
, 											{
												"patchline" : 												{
													"destination" : [ "obj-78", 0 ],
													"source" : [ "obj-116", 0 ]
												}

											}
, 											{
												"patchline" : 												{
													"destination" : [ "obj-116", 1 ],
													"source" : [ "obj-117", 1 ]
												}

											}
, 											{
												"patchline" : 												{
													"destination" : [ "obj-117", 0 ],
													"source" : [ "obj-118", 0 ]
												}

											}
, 											{
												"patchline" : 												{
													"destination" : [ "obj-116", 2 ],
													"source" : [ "obj-119", 1 ]
												}

											}
, 											{
												"patchline" : 												{
													"destination" : [ "obj-119", 0 ],
													"source" : [ "obj-120", 0 ]
												}

											}
, 											{
												"patchline" : 												{
													"destination" : [ "obj-90", 0 ],
													"source" : [ "obj-122", 0 ]
												}

											}
, 											{
												"patchline" : 												{
													"destination" : [ "obj-39", 0 ],
													"source" : [ "obj-38", 0 ]
												}

											}
, 											{
												"patchline" : 												{
													"destination" : [ "obj-54", 0 ],
													"source" : [ "obj-39", 0 ]
												}

											}
, 											{
												"patchline" : 												{
													"destination" : [ "obj-38", 0 ],
													"source" : [ "obj-4", 0 ]
												}

											}
, 											{
												"patchline" : 												{
													"destination" : [ "obj-38", 0 ],
													"source" : [ "obj-41", 0 ]
												}

											}
, 											{
												"patchline" : 												{
													"destination" : [ "obj-41", 0 ],
													"source" : [ "obj-44", 0 ]
												}

											}
, 											{
												"patchline" : 												{
													"destination" : [ "obj-38", 0 ],
													"source" : [ "obj-47", 0 ]
												}

											}
, 											{
												"patchline" : 												{
													"destination" : [ "obj-4", 0 ],
													"source" : [ "obj-5", 0 ]
												}

											}
, 											{
												"patchline" : 												{
													"destination" : [ "obj-44", 0 ],
													"source" : [ "obj-56", 0 ]
												}

											}
, 											{
												"patchline" : 												{
													"destination" : [ "obj-38", 0 ],
													"source" : [ "obj-57", 0 ]
												}

											}
, 											{
												"patchline" : 												{
													"destination" : [ "obj-44", 0 ],
													"source" : [ "obj-57", 1 ]
												}

											}
, 											{
												"patchline" : 												{
													"destination" : [ "obj-56", 0 ],
													"source" : [ "obj-66", 0 ]
												}

											}
, 											{
												"patchline" : 												{
													"destination" : [ "obj-44", 0 ],
													"source" : [ "obj-68", 0 ]
												}

											}
, 											{
												"patchline" : 												{
													"destination" : [ "obj-44", 0 ],
													"source" : [ "obj-73", 0 ]
												}

											}
, 											{
												"patchline" : 												{
													"destination" : [ "obj-93", 0 ],
													"source" : [ "obj-77", 0 ]
												}

											}
, 											{
												"patchline" : 												{
													"destination" : [ "obj-57", 0 ],
													"source" : [ "obj-78", 0 ]
												}

											}
, 											{
												"patchline" : 												{
													"destination" : [ "obj-73", 0 ],
													"source" : [ "obj-78", 1 ]
												}

											}
, 											{
												"patchline" : 												{
													"destination" : [ "obj-5", 0 ],
													"source" : [ "obj-8", 0 ]
												}

											}
, 											{
												"patchline" : 												{
													"destination" : [ "obj-44", 0 ],
													"source" : [ "obj-80", 0 ]
												}

											}
, 											{
												"patchline" : 												{
													"destination" : [ "obj-80", 0 ],
													"source" : [ "obj-82", 0 ]
												}

											}
, 											{
												"patchline" : 												{
													"destination" : [ "obj-80", 0 ],
													"source" : [ "obj-84", 0 ]
												}

											}
, 											{
												"patchline" : 												{
													"destination" : [ "obj-44", 0 ],
													"source" : [ "obj-86", 0 ]
												}

											}
, 											{
												"patchline" : 												{
													"destination" : [ "obj-44", 0 ],
													"source" : [ "obj-88", 0 ]
												}

											}
, 											{
												"patchline" : 												{
													"destination" : [ "obj-88", 0 ],
													"source" : [ "obj-90", 0 ]
												}

											}
, 											{
												"patchline" : 												{
													"destination" : [ "obj-100", 0 ],
													"source" : [ "obj-93", 0 ]
												}

											}
 ]
									}
,
									"patching_rect" : [ 420.31915283203125, 118.471672058105469, 54.0, 22.0 ],
									"saved_object_attributes" : 									{
										"description" : "",
										"digest" : "",
										"globalpatchername" : "",
										"tags" : ""
									}
,
									"text" : "p testing"
								}

							}
, 							{
								"box" : 								{
									"id" : "obj-6",
									"maxclass" : "newobj",
									"numinlets" : 2,
									"numoutlets" : 2,
									"outlettype" : [ "", "" ],
									"patching_rect" : [ 265.53192138671875, 160.446807861328125, 59.0, 22.0 ],
									"text" : "route text"
								}

							}
, 							{
								"box" : 								{
									"id" : "obj-1",
									"maxclass" : "textedit",
									"numinlets" : 1,
									"numoutlets" : 4,
									"outlettype" : [ "", "int", "", "" ],
									"parameter_enable" : 0,
									"patching_rect" : [ 265.53192138671875, 110.446807861328125, 100.0, 50.0 ],
									"text" : "10.32.71.87"
								}

							}
, 							{
								"box" : 								{
									"id" : "obj-3",
									"maxclass" : "message",
									"numinlets" : 2,
									"numoutlets" : 1,
									"outlettype" : [ "" ],
									"patching_rect" : [ 170.31915283203125, 110.638298034667969, 85.0, 22.0 ],
									"text" : "169.254.6.215"
								}

							}
, 							{
								"box" : 								{
									"id" : "obj-37",
									"maxclass" : "newobj",
									"numinlets" : 1,
									"numoutlets" : 1,
									"outlettype" : [ "" ],
									"patching_rect" : [ 207.31915283203125, 450.6383056640625, 177.0, 22.0 ],
									"text" : "loadmess set parse_type JSON"
								}

							}
, 							{
								"box" : 								{
									"id" : "obj-30",
									"maxclass" : "newobj",
									"numinlets" : 1,
									"numoutlets" : 2,
									"outlettype" : [ "bang", "" ],
									"patching_rect" : [ 330.31915283203125, 253.2633056640625, 29.5, 22.0 ],
									"text" : "t b l"
								}

							}
, 							{
								"box" : 								{
									"id" : "obj-29",
									"maxclass" : "newobj",
									"numinlets" : 1,
									"numoutlets" : 1,
									"outlettype" : [ "" ],
									"patching_rect" : [ 330.31915283203125, 282.596649169921875, 31.0, 22.0 ],
									"text" : "v url"
								}

							}
, 							{
								"box" : 								{
									"id" : "obj-25",
									"linecount" : 2,
									"maxclass" : "message",
									"numinlets" : 2,
									"numoutlets" : 1,
									"outlettype" : [ "" ],
									"patching_rect" : [ 50.0, 215.971649169921875, 50.0, 35.0 ],
									"text" : "10.32.71.87"
								}

							}
, 							{
								"box" : 								{
									"id" : "obj-22",
									"maxclass" : "button",
									"numinlets" : 1,
									"numoutlets" : 1,
									"outlettype" : [ "bang" ],
									"parameter_enable" : 0,
									"patching_rect" : [ 76.0, 100.0, 24.0, 24.0 ]
								}

							}
, 							{
								"box" : 								{
									"id" : "obj-19",
									"maxclass" : "newobj",
									"numinlets" : 1,
									"numoutlets" : 1,
									"outlettype" : [ "" ],
									"patching_rect" : [ 85.31915283203125, 182.446807861328125, 134.0, 22.0 ],
									"text" : "value url 169.254.6.215"
								}

							}
, 							{
								"box" : 								{
									"id" : "obj-2",
									"maxclass" : "button",
									"numinlets" : 1,
									"numoutlets" : 1,
									"outlettype" : [ "bang" ],
									"parameter_enable" : 0,
									"patching_rect" : [ 396.31915283203125, 437.6383056640625, 24.0, 24.0 ]
								}

							}
, 							{
								"box" : 								{
									"data" : 									{
										"url" : "http://10.0.1.5/api/vDJbI9iCdvv0kDOQlizEc9avsFepw2NL4kUmZr3P/scenes/lSI3KldUvkMa6PV/lightstates/16",
										"http_method" : "put",
										"parse_type" : "JSON",
										"post_data" : "{\n\t\"on\" : true,\n\t\"bri\" : 179,\n\t\"hue\" : 7864,\n\t\"sat\" : 187,\n\t\"effect\" : \"none\",\n\t\"xy\" : [ 0.4915, 0.4149 ],\n\t\"ct\" : 424,\n\t\"mode\" : \"homeautomation\",\n\t\"transitiontime\" : 285\n}\n"
									}
,
									"id" : "obj-63",
									"maxclass" : "newobj",
									"numinlets" : 2,
									"numoutlets" : 4,
									"outlettype" : [ "dictionary", "", "", "" ],
									"patching_rect" : [ 207.31915283203125, 419.6383056640625, 164.0, 22.0 ],
									"saved_object_attributes" : 									{
										"embed" : 1,
										"parameter_enable" : 0,
										"parameter_mappable" : 0
									}
,
									"text" : "dict modifyScene @embed 1"
								}

							}
, 							{
								"box" : 								{
									"data" : 									{
										"url" : "http://169.254.6.215/api/vDJbI9iCdvv0kDOQlizEc9avsFepw2NL4kUmZr3P/lights",
										"http_method" : "get",
										"parse_type" : "JSON"
									}
,
									"id" : "obj-75",
									"maxclass" : "newobj",
									"numinlets" : 2,
									"numoutlets" : 4,
									"outlettype" : [ "dictionary", "", "", "" ],
									"patching_rect" : [ 396.31915283203125, 475.638275146484375, 142.0, 22.0 ],
									"saved_object_attributes" : 									{
										"embed" : 1,
										"parameter_enable" : 0,
										"parameter_mappable" : 0
									}
,
									"style" : "blueNight",
									"text" : "dict Getlights @embed 1"
								}

							}
, 							{
								"box" : 								{
									"id" : "obj-71",
									"maxclass" : "message",
									"numinlets" : 2,
									"numoutlets" : 1,
									"outlettype" : [ "" ],
									"patching_rect" : [ 529.81915283203125, 193.971649169921875, 42.0, 22.0 ],
									"style" : "blueNight",
									"text" : "/lights"
								}

							}
, 							{
								"box" : 								{
									"id" : "obj-51",
									"maxclass" : "message",
									"numinlets" : 2,
									"numoutlets" : 1,
									"outlettype" : [ "" ],
									"patching_rect" : [ 586.81915283203125, 193.971649169921875, 52.0, 22.0 ],
									"style" : "blueNight",
									"text" : "/scenes"
								}

							}
, 							{
								"box" : 								{
									"id" : "obj-50",
									"maxclass" : "message",
									"numinlets" : 2,
									"numoutlets" : 1,
									"outlettype" : [ "" ],
									"patching_rect" : [ 441.81915283203125, 193.971649169921875, 51.0, 22.0 ],
									"style" : "blueNight",
									"text" : "/groups"
								}

							}
, 							{
								"box" : 								{
									"id" : "obj-14",
									"maxclass" : "newobj",
									"numinlets" : 1,
									"numoutlets" : 1,
									"outlettype" : [ "" ],
									"patching_rect" : [ 180.31915283203125, 331.6383056640625, 144.0, 22.0 ],
									"style" : "blueNight",
									"text" : "prepend set http_method"
								}

							}
, 							{
								"box" : 								{
									"id" : "obj-15",
									"maxclass" : "message",
									"numinlets" : 2,
									"numoutlets" : 1,
									"outlettype" : [ "" ],
									"patching_rect" : [ 120.31915283203125, 332.6383056640625, 50.0, 22.0 ],
									"style" : "blueNight",
									"text" : "get"
								}

							}
, 							{
								"box" : 								{
									"id" : "obj-26",
									"maxclass" : "message",
									"numinlets" : 2,
									"numoutlets" : 1,
									"outlettype" : [ "" ],
									"patching_rect" : [ 330.31915283203125, 193.971649169921875, 94.0, 22.0 ],
									"style" : "blueNight",
									"text" : "/groups/2/action"
								}

							}
, 							{
								"box" : 								{
									"id" : "obj-16",
									"maxclass" : "newobj",
									"numinlets" : 2,
									"numoutlets" : 1,
									"outlettype" : [ "" ],
									"patching_rect" : [ 330.31915283203125, 328.1383056640625, 434.0, 22.0 ],
									"style" : "blueNight",
									"text" : "sprintf set url http://%s/api/ITskQhand7Q7zpL56KTCg8kqvSY-k5majxL61bvQ%s"
								}

							}
, 							{
								"box" : 								{
									"id" : "obj-21",
									"items" : [ "get", ",", "post", ",", "put", ",", "delete" ],
									"maxclass" : "umenu",
									"numinlets" : 1,
									"numoutlets" : 3,
									"outlettype" : [ "int", "", "" ],
									"parameter_enable" : 0,
									"patching_rect" : [ 139.81915283203125, 259.6383056640625, 100.0, 22.0 ],
									"style" : "blueNight"
								}

							}
, 							{
								"box" : 								{
									"id" : "obj-17",
									"maxclass" : "button",
									"numinlets" : 1,
									"numoutlets" : 1,
									"outlettype" : [ "bang" ],
									"parameter_enable" : 0,
									"patching_rect" : [ 126.31915283203125, 407.6383056640625, 24.0, 24.0 ],
									"style" : "blueNight"
								}

							}
, 							{
								"box" : 								{
									"id" : "obj-18",
									"maxclass" : "newobj",
									"numinlets" : 2,
									"numoutlets" : 4,
									"outlettype" : [ "dictionary", "", "", "" ],
									"patching_rect" : [ 161.31915283203125, 481.6383056640625, 74.0, 22.0 ],
									"saved_object_attributes" : 									{
										"embed" : 0,
										"parameter_enable" : 0,
										"parameter_mappable" : 0
									}
,
									"style" : "blueNight",
									"text" : "dict testReq"
								}

							}
, 							{
								"box" : 								{
									"id" : "obj-11",
									"maxclass" : "dict.view",
									"numinlets" : 1,
									"numoutlets" : 0,
									"patching_rect" : [ 161.31915283203125, 546.6383056640625, 558.0, 587.0 ],
									"style" : "blueNight"
								}

							}
, 							{
								"box" : 								{
									"id" : "obj-10",
									"maxclass" : "newobj",
									"numinlets" : 1,
									"numoutlets" : 2,
									"outlettype" : [ "dictionary", "" ],
									"patching_rect" : [ 161.31915283203125, 512.6383056640625, 47.0, 22.0 ],
									"style" : "blueNight",
									"text" : "maxurl"
								}

							}
 ],
						"lines" : [ 							{
								"patchline" : 								{
									"destination" : [ "obj-6", 0 ],
									"source" : [ "obj-1", 0 ]
								}

							}
, 							{
								"patchline" : 								{
									"destination" : [ "obj-11", 0 ],
									"source" : [ "obj-10", 0 ]
								}

							}
, 							{
								"patchline" : 								{
									"destination" : [ "obj-18", 0 ],
									"source" : [ "obj-14", 0 ]
								}

							}
, 							{
								"patchline" : 								{
									"destination" : [ "obj-18", 0 ],
									"source" : [ "obj-16", 0 ]
								}

							}
, 							{
								"patchline" : 								{
									"destination" : [ "obj-18", 0 ],
									"source" : [ "obj-17", 0 ]
								}

							}
, 							{
								"patchline" : 								{
									"destination" : [ "obj-10", 0 ],
									"source" : [ "obj-18", 0 ]
								}

							}
, 							{
								"patchline" : 								{
									"destination" : [ "obj-25", 1 ],
									"source" : [ "obj-19", 0 ]
								}

							}
, 							{
								"patchline" : 								{
									"destination" : [ "obj-75", 0 ],
									"source" : [ "obj-2", 0 ]
								}

							}
, 							{
								"patchline" : 								{
									"destination" : [ "obj-14", 0 ],
									"order" : 0,
									"source" : [ "obj-21", 1 ]
								}

							}
, 							{
								"patchline" : 								{
									"destination" : [ "obj-15", 1 ],
									"order" : 1,
									"source" : [ "obj-21", 1 ]
								}

							}
, 							{
								"patchline" : 								{
									"destination" : [ "obj-1", 0 ],
									"order" : 0,
									"source" : [ "obj-22", 0 ]
								}

							}
, 							{
								"patchline" : 								{
									"destination" : [ "obj-19", 0 ],
									"order" : 1,
									"source" : [ "obj-22", 0 ]
								}

							}
, 							{
								"patchline" : 								{
									"destination" : [ "obj-30", 0 ],
									"source" : [ "obj-26", 0 ]
								}

							}
, 							{
								"patchline" : 								{
									"destination" : [ "obj-16", 0 ],
									"source" : [ "obj-29", 0 ]
								}

							}
, 							{
								"patchline" : 								{
									"destination" : [ "obj-19", 0 ],
									"source" : [ "obj-3", 0 ]
								}

							}
, 							{
								"patchline" : 								{
									"destination" : [ "obj-16", 1 ],
									"source" : [ "obj-30", 1 ]
								}

							}
, 							{
								"patchline" : 								{
									"destination" : [ "obj-29", 0 ],
									"source" : [ "obj-30", 0 ]
								}

							}
, 							{
								"patchline" : 								{
									"destination" : [ "obj-18", 0 ],
									"source" : [ "obj-37", 0 ]
								}

							}
, 							{
								"patchline" : 								{
									"destination" : [ "obj-30", 0 ],
									"source" : [ "obj-50", 0 ]
								}

							}
, 							{
								"patchline" : 								{
									"destination" : [ "obj-30", 0 ],
									"source" : [ "obj-51", 0 ]
								}

							}
, 							{
								"patchline" : 								{
									"destination" : [ "obj-19", 0 ],
									"source" : [ "obj-6", 0 ]
								}

							}
, 							{
								"patchline" : 								{
									"destination" : [ "obj-30", 0 ],
									"source" : [ "obj-71", 0 ]
								}

							}
, 							{
								"patchline" : 								{
									"destination" : [ "obj-10", 0 ],
									"source" : [ "obj-75", 0 ]
								}

							}
 ]
					}
,
					"patching_rect" : [ 674.68084716796875, 440.361663818359375, 54.0, 22.0 ],
					"saved_object_attributes" : 					{
						"description" : "",
						"digest" : "",
						"globalpatchername" : "",
						"tags" : ""
					}
,
					"text" : "p testing"
				}

			}
, 			{
				"box" : 				{
					"id" : "obj-33",
					"maxclass" : "message",
					"numinlets" : 2,
					"numoutlets" : 1,
					"outlettype" : [ "" ],
					"patching_rect" : [ 333.0, 326.0, 99.0, 22.0 ],
					"text" : "44293 255 60 10"
				}

			}
, 			{
				"box" : 				{
					"id" : "obj-24",
					"maxclass" : "message",
					"numinlets" : 2,
					"numoutlets" : 1,
					"outlettype" : [ "" ],
					"patching_rect" : [ 213.0, 326.0, 105.0, 22.0 ],
					"text" : "38333 200 202 20"
				}

			}
, 			{
				"box" : 				{
					"id" : "obj-20",
					"maxclass" : "message",
					"numinlets" : 2,
					"numoutlets" : 1,
					"outlettype" : [ "" ],
					"patching_rect" : [ 98.0, 326.0, 105.0, 22.0 ],
					"text" : "38333 171 202 20"
				}

			}
, 			{
				"box" : 				{
					"id" : "obj-81",
					"maxclass" : "newobj",
					"numinlets" : 0,
					"numoutlets" : 1,
					"outlettype" : [ "" ],
					"patching_rect" : [ 205.0, 449.0, 77.0, 22.0 ],
					"text" : "r toHueNode"
				}

			}
, 			{
				"box" : 				{
					"id" : "obj-31",
					"maxclass" : "message",
					"numinlets" : 2,
					"numoutlets" : 1,
					"outlettype" : [ "" ],
					"patching_rect" : [ 305.0, 481.0, 155.0, 22.0 ],
					"text" : "roomChange 2 $1 $2 $3 $4"
				}

			}
, 			{
				"box" : 				{
					"id" : "obj-42",
					"maxclass" : "message",
					"numinlets" : 2,
					"numoutlets" : 1,
					"outlettype" : [ "" ],
					"patching_rect" : [ 142.5, 400.425506591796875, 32.0, 22.0 ],
					"text" : "off 2"
				}

			}
, 			{
				"box" : 				{
					"id" : "obj-23",
					"maxclass" : "message",
					"numinlets" : 2,
					"numoutlets" : 1,
					"outlettype" : [ "" ],
					"patching_rect" : [ 61.0, 395.425506591796875, 32.0, 22.0 ],
					"text" : "on 2"
				}

			}
, 			{
				"box" : 				{
					"id" : "obj-28",
					"maxclass" : "message",
					"numinlets" : 2,
					"numoutlets" : 1,
					"outlettype" : [ "" ],
					"patching_rect" : [ 134.0, 449.0, 65.0, 22.0 ],
					"text" : "script stop"
				}

			}
, 			{
				"box" : 				{
					"id" : "obj-12",
					"maxclass" : "message",
					"numinlets" : 2,
					"numoutlets" : 1,
					"outlettype" : [ "" ],
					"patching_rect" : [ 61.0, 449.0, 66.0, 22.0 ],
					"text" : "script start"
				}

			}
, 			{
				"box" : 				{
					"bgmode" : 0,
					"border" : 0,
					"clickthrough" : 0,
					"enablehscroll" : 0,
					"enablevscroll" : 0,
					"id" : "obj-9",
					"lockeddragscroll" : 0,
					"maxclass" : "bpatcher",
					"name" : "n4m.monitor.maxpat",
					"numinlets" : 1,
					"numoutlets" : 0,
					"offset" : [ 0.0, 0.0 ],
					"patching_rect" : [ 142.5, 596.31915283203125, 400.0, 220.0 ],
					"viewvisibility" : 1
				}

			}
, 			{
				"box" : 				{
					"id" : "obj-7",
					"maxclass" : "newobj",
					"numinlets" : 1,
					"numoutlets" : 2,
					"outlettype" : [ "", "" ],
					"patching_rect" : [ 61.0, 493.0, 103.0, 22.0 ],
					"saved_object_attributes" : 					{
						"autostart" : 0,
						"defer" : 0,
						"node" : "",
						"npm" : "",
						"watch" : 0
					}
,
					"style" : "solarized?",
					"text" : "node.script hue.js"
				}

			}
 ],
		"lines" : [ 			{
				"patchline" : 				{
					"destination" : [ "obj-20", 0 ],
					"source" : [ "obj-10", 0 ]
				}

			}
, 			{
				"patchline" : 				{
					"destination" : [ "obj-24", 0 ],
					"source" : [ "obj-10", 1 ]
				}

			}
, 			{
				"patchline" : 				{
					"destination" : [ "obj-10", 0 ],
					"source" : [ "obj-11", 0 ]
				}

			}
, 			{
				"patchline" : 				{
					"destination" : [ "obj-7", 0 ],
					"source" : [ "obj-12", 0 ]
				}

			}
, 			{
				"patchline" : 				{
					"destination" : [ "obj-11", 0 ],
					"source" : [ "obj-14", 0 ]
				}

			}
, 			{
				"patchline" : 				{
					"destination" : [ "obj-11", 0 ],
					"source" : [ "obj-15", 1 ]
				}

			}
, 			{
				"patchline" : 				{
					"destination" : [ "obj-32", 0 ],
					"source" : [ "obj-15", 0 ]
				}

			}
, 			{
				"patchline" : 				{
					"destination" : [ "obj-11", 0 ],
					"source" : [ "obj-16", 1 ]
				}

			}
, 			{
				"patchline" : 				{
					"destination" : [ "obj-33", 0 ],
					"source" : [ "obj-16", 0 ]
				}

			}
, 			{
				"patchline" : 				{
					"destination" : [ "obj-31", 0 ],
					"source" : [ "obj-17", 0 ]
				}

			}
, 			{
				"patchline" : 				{
					"destination" : [ "obj-31", 0 ],
					"source" : [ "obj-18", 0 ]
				}

			}
, 			{
				"patchline" : 				{
					"destination" : [ "obj-8", 0 ],
					"source" : [ "obj-2", 0 ]
				}

			}
, 			{
				"patchline" : 				{
					"destination" : [ "obj-31", 0 ],
					"source" : [ "obj-20", 0 ]
				}

			}
, 			{
				"patchline" : 				{
					"destination" : [ "obj-7", 0 ],
					"source" : [ "obj-23", 0 ]
				}

			}
, 			{
				"patchline" : 				{
					"destination" : [ "obj-31", 0 ],
					"source" : [ "obj-24", 0 ]
				}

			}
, 			{
				"patchline" : 				{
					"destination" : [ "obj-6", 0 ],
					"source" : [ "obj-25", 0 ]
				}

			}
, 			{
				"patchline" : 				{
					"destination" : [ "obj-7", 0 ],
					"source" : [ "obj-28", 0 ]
				}

			}
, 			{
				"patchline" : 				{
					"destination" : [ "obj-31", 0 ],
					"source" : [ "obj-3", 0 ]
				}

			}
, 			{
				"patchline" : 				{
					"destination" : [ "obj-7", 0 ],
					"source" : [ "obj-31", 0 ]
				}

			}
, 			{
				"patchline" : 				{
					"destination" : [ "obj-31", 0 ],
					"source" : [ "obj-32", 0 ]
				}

			}
, 			{
				"patchline" : 				{
					"destination" : [ "obj-31", 0 ],
					"source" : [ "obj-33", 0 ]
				}

			}
, 			{
				"patchline" : 				{
					"destination" : [ "obj-5", 0 ],
					"source" : [ "obj-4", 0 ]
				}

			}
, 			{
				"patchline" : 				{
					"destination" : [ "obj-7", 0 ],
					"source" : [ "obj-42", 0 ]
				}

			}
, 			{
				"patchline" : 				{
					"destination" : [ "obj-12", 0 ],
					"source" : [ "obj-5", 0 ]
				}

			}
, 			{
				"patchline" : 				{
					"destination" : [ "obj-14", 0 ],
					"source" : [ "obj-6", 0 ]
				}

			}
, 			{
				"patchline" : 				{
					"destination" : [ "obj-16", 0 ],
					"source" : [ "obj-6", 1 ]
				}

			}
, 			{
				"patchline" : 				{
					"destination" : [ "obj-9", 0 ],
					"source" : [ "obj-7", 1 ]
				}

			}
, 			{
				"patchline" : 				{
					"destination" : [ "obj-15", 0 ],
					"source" : [ "obj-8", 0 ]
				}

			}
, 			{
				"patchline" : 				{
					"destination" : [ "obj-17", 0 ],
					"source" : [ "obj-8", 1 ]
				}

			}
, 			{
				"patchline" : 				{
					"destination" : [ "obj-18", 0 ],
					"source" : [ "obj-8", 2 ]
				}

			}
, 			{
				"patchline" : 				{
					"destination" : [ "obj-19", 0 ],
					"source" : [ "obj-8", 3 ]
				}

			}
, 			{
				"patchline" : 				{
					"destination" : [ "obj-7", 0 ],
					"source" : [ "obj-81", 0 ]
				}

			}
 ],
		"parameters" : 		{
			"obj-1::obj-70::obj-122" : [ "slider", "slider", 0 ],
			"obj-3::obj-64" : [ "slider[7]", "slider[2]", 0 ],
			"obj-1::obj-70::obj-114" : [ "slider[2]", "slider[2]", 0 ],
			"obj-3::obj-53" : [ "slider[5]", "slider", 0 ],
			"obj-3::obj-62" : [ "slider[6]", "slider[3]", 0 ],
			"obj-3::obj-69" : [ "slider[8]", "slider[1]", 0 ],
			"obj-1::obj-70::obj-115" : [ "slider[3]", "slider[3]", 0 ],
			"obj-1::obj-70::obj-77" : [ "slider[1]", "slider[1]", 0 ],
			"parameterbanks" : 			{

			}

		}
,
		"parameter_map" : 		{
			"midi" : 			{
				"slider[1]" : 				{
					"srcname" : "48.ctrl.0.chan.midi",
					"min" : 0.0,
					"max" : 65534.0,
					"flags" : 2
				}
,
				"slider[2]" : 				{
					"srcname" : "49.ctrl.0.chan.midi",
					"min" : 0.0,
					"max" : 253.0,
					"flags" : 2
				}
,
				"slider[3]" : 				{
					"srcname" : "50.ctrl.0.chan.midi",
					"min" : 0.0,
					"max" : 253.0,
					"flags" : 2
				}
,
				"slider" : 				{
					"srcname" : "51.ctrl.0.chan.midi",
					"min" : 0.0,
					"max" : 99.0,
					"flags" : 2
				}

			}

		}
,
		"dependency_cache" : [ 			{
				"name" : "n4m.monitor.maxpat",
				"bootpath" : "C74:/packages/Node For Max/patchers/debug-monitor",
				"type" : "JSON",
				"implicit" : 1
			}
, 			{
				"name" : "resize_n4m_monitor_patcher.js",
				"bootpath" : "C74:/packages/Node For Max/patchers/debug-monitor",
				"type" : "TEXT",
				"implicit" : 1
			}
 ],
		"autosave" : 0,
		"styles" : [ 			{
				"name" : "blueNight",
				"default" : 				{
					"textcolor_inverse" : [ 0.849573, 1.0, 0.926902, 1.0 ],
					"bgcolor" : [ 0.095481, 0.100396, 0.100293, 1.0 ],
					"patchlinecolor" : [ 0.317647, 0.654902, 0.976471, 0.9 ],
					"accentcolor" : [ 0.317647, 0.654902, 0.976471, 1.0 ],
					"textcolor" : [ 0.821246, 1.0, 0.904952, 1.0 ]
				}
,
				"parentstyle" : "",
				"multi" : 0
			}
, 			{
				"name" : "blueNight-1",
				"default" : 				{
					"textcolor_inverse" : [ 0.849573, 1.0, 0.926902, 1.0 ],
					"bgcolor" : [ 0.095481, 0.100396, 0.100293, 1.0 ],
					"patchlinecolor" : [ 0.317647, 0.654902, 0.976471, 0.9 ],
					"accentcolor" : [ 0.317647, 0.654902, 0.976471, 1.0 ]
				}
,
				"parentstyle" : "",
				"multi" : 0
			}
, 			{
				"name" : "blueNight-1-1",
				"default" : 				{
					"textcolor_inverse" : [ 0.849573, 1.0, 0.926902, 1.0 ],
					"bgcolor" : [ 0.095481, 0.100396, 0.100293, 1.0 ],
					"patchlinecolor" : [ 0.317647, 0.654902, 0.976471, 0.9 ],
					"accentcolor" : [ 0.317647, 0.654902, 0.976471, 1.0 ],
					"textcolor" : [ 0.821246, 1.0, 0.904952, 1.0 ]
				}
,
				"parentstyle" : "",
				"multi" : 0
			}
, 			{
				"name" : "blueNight-1-1-1",
				"default" : 				{
					"textcolor_inverse" : [ 0.849573, 1.0, 0.926902, 1.0 ],
					"bgcolor" : [ 0.095481, 0.100396, 0.100293, 1.0 ],
					"patchlinecolor" : [ 0.317647, 0.654902, 0.976471, 0.9 ],
					"accentcolor" : [ 0.317647, 0.654902, 0.976471, 1.0 ]
				}
,
				"parentstyle" : "",
				"multi" : 0
			}
, 			{
				"name" : "blueNight-1-1-1-1",
				"default" : 				{
					"textcolor_inverse" : [ 0.849573, 1.0, 0.926902, 1.0 ],
					"bgcolor" : [ 0.095481, 0.100396, 0.100293, 1.0 ],
					"patchlinecolor" : [ 0.317647, 0.654902, 0.976471, 0.9 ],
					"accentcolor" : [ 0.317647, 0.654902, 0.976471, 1.0 ],
					"textcolor" : [ 0.821246, 1.0, 0.904952, 1.0 ]
				}
,
				"parentstyle" : "",
				"multi" : 0
			}
, 			{
				"name" : "blueNight-1-1-1-1-1",
				"default" : 				{
					"textcolor_inverse" : [ 0.849573, 1.0, 0.926902, 1.0 ],
					"bgcolor" : [ 0.095481, 0.100396, 0.100293, 1.0 ],
					"patchlinecolor" : [ 0.317647, 0.654902, 0.976471, 0.9 ],
					"accentcolor" : [ 0.317647, 0.654902, 0.976471, 1.0 ]
				}
,
				"parentstyle" : "",
				"multi" : 0
			}
, 			{
				"name" : "blueNight-1-1-1-1-1-1",
				"default" : 				{
					"textcolor_inverse" : [ 0.849573, 1.0, 0.926902, 1.0 ],
					"bgcolor" : [ 0.095481, 0.100396, 0.100293, 1.0 ],
					"patchlinecolor" : [ 0.317647, 0.654902, 0.976471, 0.9 ],
					"accentcolor" : [ 0.317647, 0.654902, 0.976471, 1.0 ],
					"textcolor" : [ 0.821246, 1.0, 0.904952, 1.0 ]
				}
,
				"parentstyle" : "",
				"multi" : 0
			}
, 			{
				"name" : "blueNight-1-1-1-1-1-1-1",
				"default" : 				{
					"textcolor_inverse" : [ 0.849573, 1.0, 0.926902, 1.0 ],
					"bgcolor" : [ 0.095481, 0.100396, 0.100293, 1.0 ],
					"patchlinecolor" : [ 0.317647, 0.654902, 0.976471, 0.9 ],
					"accentcolor" : [ 0.317647, 0.654902, 0.976471, 1.0 ]
				}
,
				"parentstyle" : "",
				"multi" : 0
			}
, 			{
				"name" : "blueNight-1-1-1-1-1-1-2",
				"default" : 				{
					"textcolor_inverse" : [ 0.849573, 1.0, 0.926902, 1.0 ],
					"bgcolor" : [ 0.095481, 0.100396, 0.100293, 1.0 ],
					"patchlinecolor" : [ 0.317647, 0.654902, 0.976471, 0.9 ],
					"accentcolor" : [ 0.317647, 0.654902, 0.976471, 1.0 ]
				}
,
				"parentstyle" : "",
				"multi" : 0
			}
, 			{
				"name" : "blueNight-1-1-1-1-1-2",
				"default" : 				{
					"textcolor_inverse" : [ 0.849573, 1.0, 0.926902, 1.0 ],
					"bgcolor" : [ 0.095481, 0.100396, 0.100293, 1.0 ],
					"patchlinecolor" : [ 0.317647, 0.654902, 0.976471, 0.9 ],
					"accentcolor" : [ 0.317647, 0.654902, 0.976471, 1.0 ],
					"textcolor" : [ 0.821246, 1.0, 0.904952, 1.0 ]
				}
,
				"parentstyle" : "",
				"multi" : 0
			}
, 			{
				"name" : "blueNight-1-1-1-1-2",
				"default" : 				{
					"textcolor_inverse" : [ 0.849573, 1.0, 0.926902, 1.0 ],
					"bgcolor" : [ 0.095481, 0.100396, 0.100293, 1.0 ],
					"patchlinecolor" : [ 0.317647, 0.654902, 0.976471, 0.9 ],
					"accentcolor" : [ 0.317647, 0.654902, 0.976471, 1.0 ]
				}
,
				"parentstyle" : "",
				"multi" : 0
			}
, 			{
				"name" : "blueNight-1-1-1-1-3",
				"default" : 				{
					"textcolor_inverse" : [ 0.849573, 1.0, 0.926902, 1.0 ],
					"bgcolor" : [ 0.095481, 0.100396, 0.100293, 1.0 ],
					"patchlinecolor" : [ 0.317647, 0.654902, 0.976471, 0.9 ],
					"accentcolor" : [ 0.317647, 0.654902, 0.976471, 1.0 ]
				}
,
				"parentstyle" : "",
				"multi" : 0
			}
, 			{
				"name" : "blueNight-1-1-1-2",
				"default" : 				{
					"textcolor_inverse" : [ 0.849573, 1.0, 0.926902, 1.0 ],
					"bgcolor" : [ 0.095481, 0.100396, 0.100293, 1.0 ],
					"patchlinecolor" : [ 0.317647, 0.654902, 0.976471, 0.9 ],
					"accentcolor" : [ 0.317647, 0.654902, 0.976471, 1.0 ]
				}
,
				"parentstyle" : "",
				"multi" : 0
			}
, 			{
				"name" : "blueNight-1-1-1-3",
				"default" : 				{
					"textcolor_inverse" : [ 0.849573, 1.0, 0.926902, 1.0 ],
					"bgcolor" : [ 0.095481, 0.100396, 0.100293, 1.0 ],
					"patchlinecolor" : [ 0.317647, 0.654902, 0.976471, 0.9 ],
					"accentcolor" : [ 0.317647, 0.654902, 0.976471, 1.0 ]
				}
,
				"parentstyle" : "",
				"multi" : 0
			}
, 			{
				"name" : "blueNight-1-1-1-4",
				"default" : 				{
					"textcolor_inverse" : [ 0.849573, 1.0, 0.926902, 1.0 ],
					"bgcolor" : [ 0.095481, 0.100396, 0.100293, 1.0 ],
					"patchlinecolor" : [ 0.317647, 0.654902, 0.976471, 0.9 ],
					"accentcolor" : [ 0.317647, 0.654902, 0.976471, 1.0 ],
					"textcolor" : [ 0.821246, 1.0, 0.904952, 1.0 ]
				}
,
				"parentstyle" : "",
				"multi" : 0
			}
, 			{
				"name" : "blueNight-1-1-1-4-1",
				"default" : 				{
					"textcolor_inverse" : [ 0.849573, 1.0, 0.926902, 1.0 ],
					"bgcolor" : [ 0.095481, 0.100396, 0.100293, 1.0 ],
					"patchlinecolor" : [ 0.317647, 0.654902, 0.976471, 0.9 ],
					"accentcolor" : [ 0.317647, 0.654902, 0.976471, 1.0 ]
				}
,
				"parentstyle" : "",
				"multi" : 0
			}
, 			{
				"name" : "blueNight-1-1-1-4-2",
				"default" : 				{
					"textcolor_inverse" : [ 0.849573, 1.0, 0.926902, 1.0 ],
					"bgcolor" : [ 0.095481, 0.100396, 0.100293, 1.0 ],
					"patchlinecolor" : [ 0.317647, 0.654902, 0.976471, 0.9 ],
					"accentcolor" : [ 0.317647, 0.654902, 0.976471, 1.0 ]
				}
,
				"parentstyle" : "",
				"multi" : 0
			}
, 			{
				"name" : "blueNight-1-1-1-5",
				"default" : 				{
					"textcolor_inverse" : [ 0.849573, 1.0, 0.926902, 1.0 ],
					"bgcolor" : [ 0.095481, 0.100396, 0.100293, 1.0 ],
					"patchlinecolor" : [ 0.317647, 0.654902, 0.976471, 0.9 ],
					"accentcolor" : [ 0.317647, 0.654902, 0.976471, 1.0 ],
					"textcolor" : [ 0.821246, 1.0, 0.904952, 1.0 ]
				}
,
				"parentstyle" : "",
				"multi" : 0
			}
, 			{
				"name" : "blueNight-1-1-2",
				"default" : 				{
					"textcolor_inverse" : [ 0.849573, 1.0, 0.926902, 1.0 ],
					"bgcolor" : [ 0.095481, 0.100396, 0.100293, 1.0 ],
					"patchlinecolor" : [ 0.317647, 0.654902, 0.976471, 0.9 ],
					"accentcolor" : [ 0.317647, 0.654902, 0.976471, 1.0 ]
				}
,
				"parentstyle" : "",
				"multi" : 0
			}
, 			{
				"name" : "blueNight-1-1-3",
				"default" : 				{
					"textcolor_inverse" : [ 0.849573, 1.0, 0.926902, 1.0 ],
					"bgcolor" : [ 0.095481, 0.100396, 0.100293, 1.0 ],
					"patchlinecolor" : [ 0.317647, 0.654902, 0.976471, 0.9 ],
					"accentcolor" : [ 0.317647, 0.654902, 0.976471, 1.0 ]
				}
,
				"parentstyle" : "",
				"multi" : 0
			}
, 			{
				"name" : "blueNight-1-1-3-1",
				"default" : 				{
					"textcolor_inverse" : [ 0.849573, 1.0, 0.926902, 1.0 ],
					"bgcolor" : [ 0.095481, 0.100396, 0.100293, 1.0 ],
					"patchlinecolor" : [ 0.317647, 0.654902, 0.976471, 0.9 ],
					"accentcolor" : [ 0.317647, 0.654902, 0.976471, 1.0 ],
					"textcolor" : [ 0.821246, 1.0, 0.904952, 1.0 ]
				}
,
				"parentstyle" : "",
				"multi" : 0
			}
, 			{
				"name" : "blueNight-1-1-3-1-1",
				"default" : 				{
					"textcolor_inverse" : [ 0.849573, 1.0, 0.926902, 1.0 ],
					"bgcolor" : [ 0.095481, 0.100396, 0.100293, 1.0 ],
					"patchlinecolor" : [ 0.317647, 0.654902, 0.976471, 0.9 ],
					"accentcolor" : [ 0.317647, 0.654902, 0.976471, 1.0 ]
				}
,
				"parentstyle" : "",
				"multi" : 0
			}
, 			{
				"name" : "blueNight-1-1-3-1-1-1",
				"default" : 				{
					"textcolor_inverse" : [ 0.849573, 1.0, 0.926902, 1.0 ],
					"bgcolor" : [ 0.095481, 0.100396, 0.100293, 1.0 ],
					"patchlinecolor" : [ 0.317647, 0.654902, 0.976471, 0.9 ],
					"accentcolor" : [ 0.317647, 0.654902, 0.976471, 1.0 ],
					"textcolor" : [ 0.821246, 1.0, 0.904952, 1.0 ]
				}
,
				"parentstyle" : "",
				"multi" : 0
			}
, 			{
				"name" : "blueNight-1-1-3-1-1-2",
				"default" : 				{
					"textcolor_inverse" : [ 0.849573, 1.0, 0.926902, 1.0 ],
					"bgcolor" : [ 0.095481, 0.100396, 0.100293, 1.0 ],
					"patchlinecolor" : [ 0.317647, 0.654902, 0.976471, 0.9 ],
					"accentcolor" : [ 0.317647, 0.654902, 0.976471, 1.0 ],
					"textcolor" : [ 0.821246, 1.0, 0.904952, 1.0 ]
				}
,
				"parentstyle" : "",
				"multi" : 0
			}
, 			{
				"name" : "blueNight-1-1-3-1-2",
				"default" : 				{
					"textcolor_inverse" : [ 0.849573, 1.0, 0.926902, 1.0 ],
					"bgcolor" : [ 0.095481, 0.100396, 0.100293, 1.0 ],
					"patchlinecolor" : [ 0.317647, 0.654902, 0.976471, 0.9 ],
					"accentcolor" : [ 0.317647, 0.654902, 0.976471, 1.0 ]
				}
,
				"parentstyle" : "",
				"multi" : 0
			}
, 			{
				"name" : "blueNight-1-1-3-2",
				"default" : 				{
					"textcolor_inverse" : [ 0.849573, 1.0, 0.926902, 1.0 ],
					"bgcolor" : [ 0.095481, 0.100396, 0.100293, 1.0 ],
					"patchlinecolor" : [ 0.317647, 0.654902, 0.976471, 0.9 ],
					"accentcolor" : [ 0.317647, 0.654902, 0.976471, 1.0 ],
					"textcolor" : [ 0.821246, 1.0, 0.904952, 1.0 ]
				}
,
				"parentstyle" : "",
				"multi" : 0
			}
, 			{
				"name" : "blueNight-1-1-3-3",
				"default" : 				{
					"textcolor_inverse" : [ 0.849573, 1.0, 0.926902, 1.0 ],
					"bgcolor" : [ 0.095481, 0.100396, 0.100293, 1.0 ],
					"patchlinecolor" : [ 0.317647, 0.654902, 0.976471, 0.9 ],
					"accentcolor" : [ 0.317647, 0.654902, 0.976471, 1.0 ],
					"textcolor" : [ 0.821246, 1.0, 0.904952, 1.0 ]
				}
,
				"parentstyle" : "",
				"multi" : 0
			}
, 			{
				"name" : "blueNight-1-1-4",
				"default" : 				{
					"textcolor_inverse" : [ 0.849573, 1.0, 0.926902, 1.0 ],
					"bgcolor" : [ 0.095481, 0.100396, 0.100293, 1.0 ],
					"patchlinecolor" : [ 0.317647, 0.654902, 0.976471, 0.9 ],
					"accentcolor" : [ 0.317647, 0.654902, 0.976471, 1.0 ],
					"textcolor" : [ 0.821246, 1.0, 0.904952, 1.0 ]
				}
,
				"parentstyle" : "",
				"multi" : 0
			}
, 			{
				"name" : "blueNight-1-1-5",
				"default" : 				{
					"textcolor_inverse" : [ 0.849573, 1.0, 0.926902, 1.0 ],
					"bgcolor" : [ 0.095481, 0.100396, 0.100293, 1.0 ],
					"patchlinecolor" : [ 0.317647, 0.654902, 0.976471, 0.9 ],
					"accentcolor" : [ 0.317647, 0.654902, 0.976471, 1.0 ]
				}
,
				"parentstyle" : "",
				"multi" : 0
			}
, 			{
				"name" : "blueNight-1-1-5-1",
				"default" : 				{
					"textcolor_inverse" : [ 0.849573, 1.0, 0.926902, 1.0 ],
					"bgcolor" : [ 0.095481, 0.100396, 0.100293, 1.0 ],
					"patchlinecolor" : [ 0.317647, 0.654902, 0.976471, 0.9 ],
					"accentcolor" : [ 0.317647, 0.654902, 0.976471, 1.0 ],
					"textcolor" : [ 0.821246, 1.0, 0.904952, 1.0 ]
				}
,
				"parentstyle" : "",
				"multi" : 0
			}
, 			{
				"name" : "blueNight-1-1-5-2",
				"default" : 				{
					"textcolor_inverse" : [ 0.849573, 1.0, 0.926902, 1.0 ],
					"bgcolor" : [ 0.095481, 0.100396, 0.100293, 1.0 ],
					"patchlinecolor" : [ 0.317647, 0.654902, 0.976471, 0.9 ],
					"accentcolor" : [ 0.317647, 0.654902, 0.976471, 1.0 ],
					"textcolor" : [ 0.821246, 1.0, 0.904952, 1.0 ]
				}
,
				"parentstyle" : "",
				"multi" : 0
			}
, 			{
				"name" : "blueNight-1-1-6",
				"default" : 				{
					"textcolor_inverse" : [ 0.849573, 1.0, 0.926902, 1.0 ],
					"bgcolor" : [ 0.095481, 0.100396, 0.100293, 1.0 ],
					"patchlinecolor" : [ 0.317647, 0.654902, 0.976471, 0.9 ],
					"accentcolor" : [ 0.317647, 0.654902, 0.976471, 1.0 ]
				}
,
				"parentstyle" : "",
				"multi" : 0
			}
, 			{
				"name" : "blueNight-1-2",
				"default" : 				{
					"textcolor_inverse" : [ 0.849573, 1.0, 0.926902, 1.0 ],
					"bgcolor" : [ 0.095481, 0.100396, 0.100293, 1.0 ],
					"patchlinecolor" : [ 0.317647, 0.654902, 0.976471, 0.9 ],
					"accentcolor" : [ 0.317647, 0.654902, 0.976471, 1.0 ],
					"textcolor" : [ 0.821246, 1.0, 0.904952, 1.0 ]
				}
,
				"parentstyle" : "",
				"multi" : 0
			}
, 			{
				"name" : "blueNight-1-2-1",
				"default" : 				{
					"textcolor_inverse" : [ 0.849573, 1.0, 0.926902, 1.0 ],
					"bgcolor" : [ 0.095481, 0.100396, 0.100293, 1.0 ],
					"patchlinecolor" : [ 0.317647, 0.654902, 0.976471, 0.9 ],
					"accentcolor" : [ 0.317647, 0.654902, 0.976471, 1.0 ]
				}
,
				"parentstyle" : "",
				"multi" : 0
			}
, 			{
				"name" : "blueNight-1-2-1-1",
				"default" : 				{
					"textcolor_inverse" : [ 0.849573, 1.0, 0.926902, 1.0 ],
					"bgcolor" : [ 0.095481, 0.100396, 0.100293, 1.0 ],
					"patchlinecolor" : [ 0.317647, 0.654902, 0.976471, 0.9 ],
					"accentcolor" : [ 0.317647, 0.654902, 0.976471, 1.0 ],
					"textcolor" : [ 0.821246, 1.0, 0.904952, 1.0 ]
				}
,
				"parentstyle" : "",
				"multi" : 0
			}
, 			{
				"name" : "blueNight-1-2-1-1-1",
				"default" : 				{
					"textcolor_inverse" : [ 0.849573, 1.0, 0.926902, 1.0 ],
					"bgcolor" : [ 0.095481, 0.100396, 0.100293, 1.0 ],
					"patchlinecolor" : [ 0.317647, 0.654902, 0.976471, 0.9 ],
					"accentcolor" : [ 0.317647, 0.654902, 0.976471, 1.0 ]
				}
,
				"parentstyle" : "",
				"multi" : 0
			}
, 			{
				"name" : "blueNight-1-2-1-1-1-1",
				"default" : 				{
					"textcolor_inverse" : [ 0.849573, 1.0, 0.926902, 1.0 ],
					"bgcolor" : [ 0.095481, 0.100396, 0.100293, 1.0 ],
					"patchlinecolor" : [ 0.317647, 0.654902, 0.976471, 0.9 ],
					"accentcolor" : [ 0.317647, 0.654902, 0.976471, 1.0 ],
					"textcolor" : [ 0.821246, 1.0, 0.904952, 1.0 ]
				}
,
				"parentstyle" : "",
				"multi" : 0
			}
, 			{
				"name" : "blueNight-1-2-1-1-1-2",
				"default" : 				{
					"textcolor_inverse" : [ 0.849573, 1.0, 0.926902, 1.0 ],
					"bgcolor" : [ 0.095481, 0.100396, 0.100293, 1.0 ],
					"patchlinecolor" : [ 0.317647, 0.654902, 0.976471, 0.9 ],
					"accentcolor" : [ 0.317647, 0.654902, 0.976471, 1.0 ],
					"textcolor" : [ 0.821246, 1.0, 0.904952, 1.0 ]
				}
,
				"parentstyle" : "",
				"multi" : 0
			}
, 			{
				"name" : "blueNight-1-2-1-1-2",
				"default" : 				{
					"textcolor_inverse" : [ 0.849573, 1.0, 0.926902, 1.0 ],
					"bgcolor" : [ 0.095481, 0.100396, 0.100293, 1.0 ],
					"patchlinecolor" : [ 0.317647, 0.654902, 0.976471, 0.9 ],
					"accentcolor" : [ 0.317647, 0.654902, 0.976471, 1.0 ]
				}
,
				"parentstyle" : "",
				"multi" : 0
			}
, 			{
				"name" : "blueNight-1-2-1-2",
				"default" : 				{
					"textcolor_inverse" : [ 0.849573, 1.0, 0.926902, 1.0 ],
					"bgcolor" : [ 0.095481, 0.100396, 0.100293, 1.0 ],
					"patchlinecolor" : [ 0.317647, 0.654902, 0.976471, 0.9 ],
					"accentcolor" : [ 0.317647, 0.654902, 0.976471, 1.0 ],
					"textcolor" : [ 0.821246, 1.0, 0.904952, 1.0 ]
				}
,
				"parentstyle" : "",
				"multi" : 0
			}
, 			{
				"name" : "blueNight-1-2-1-3",
				"default" : 				{
					"textcolor_inverse" : [ 0.849573, 1.0, 0.926902, 1.0 ],
					"bgcolor" : [ 0.095481, 0.100396, 0.100293, 1.0 ],
					"patchlinecolor" : [ 0.317647, 0.654902, 0.976471, 0.9 ],
					"accentcolor" : [ 0.317647, 0.654902, 0.976471, 1.0 ],
					"textcolor" : [ 0.821246, 1.0, 0.904952, 1.0 ]
				}
,
				"parentstyle" : "",
				"multi" : 0
			}
, 			{
				"name" : "blueNight-1-2-2",
				"default" : 				{
					"textcolor_inverse" : [ 0.849573, 1.0, 0.926902, 1.0 ],
					"bgcolor" : [ 0.095481, 0.100396, 0.100293, 1.0 ],
					"patchlinecolor" : [ 0.317647, 0.654902, 0.976471, 0.9 ],
					"accentcolor" : [ 0.317647, 0.654902, 0.976471, 1.0 ],
					"textcolor" : [ 0.821246, 1.0, 0.904952, 1.0 ]
				}
,
				"parentstyle" : "",
				"multi" : 0
			}
, 			{
				"name" : "blueNight-1-2-3",
				"default" : 				{
					"textcolor_inverse" : [ 0.849573, 1.0, 0.926902, 1.0 ],
					"bgcolor" : [ 0.095481, 0.100396, 0.100293, 1.0 ],
					"patchlinecolor" : [ 0.317647, 0.654902, 0.976471, 0.9 ],
					"accentcolor" : [ 0.317647, 0.654902, 0.976471, 1.0 ],
					"textcolor" : [ 0.821246, 1.0, 0.904952, 1.0 ]
				}
,
				"parentstyle" : "",
				"multi" : 0
			}
, 			{
				"name" : "blueNight-1-2-4",
				"default" : 				{
					"textcolor_inverse" : [ 0.849573, 1.0, 0.926902, 1.0 ],
					"bgcolor" : [ 0.095481, 0.100396, 0.100293, 1.0 ],
					"patchlinecolor" : [ 0.317647, 0.654902, 0.976471, 0.9 ],
					"accentcolor" : [ 0.317647, 0.654902, 0.976471, 1.0 ]
				}
,
				"parentstyle" : "",
				"multi" : 0
			}
, 			{
				"name" : "blueNight-1-2-4-1",
				"default" : 				{
					"textcolor_inverse" : [ 0.849573, 1.0, 0.926902, 1.0 ],
					"bgcolor" : [ 0.095481, 0.100396, 0.100293, 1.0 ],
					"patchlinecolor" : [ 0.317647, 0.654902, 0.976471, 0.9 ],
					"accentcolor" : [ 0.317647, 0.654902, 0.976471, 1.0 ],
					"textcolor" : [ 0.821246, 1.0, 0.904952, 1.0 ]
				}
,
				"parentstyle" : "",
				"multi" : 0
			}
, 			{
				"name" : "blueNight-1-2-4-2",
				"default" : 				{
					"textcolor_inverse" : [ 0.849573, 1.0, 0.926902, 1.0 ],
					"bgcolor" : [ 0.095481, 0.100396, 0.100293, 1.0 ],
					"patchlinecolor" : [ 0.317647, 0.654902, 0.976471, 0.9 ],
					"accentcolor" : [ 0.317647, 0.654902, 0.976471, 1.0 ],
					"textcolor" : [ 0.821246, 1.0, 0.904952, 1.0 ]
				}
,
				"parentstyle" : "",
				"multi" : 0
			}
, 			{
				"name" : "blueNight-1-2-5",
				"default" : 				{
					"textcolor_inverse" : [ 0.849573, 1.0, 0.926902, 1.0 ],
					"bgcolor" : [ 0.095481, 0.100396, 0.100293, 1.0 ],
					"patchlinecolor" : [ 0.317647, 0.654902, 0.976471, 0.9 ],
					"accentcolor" : [ 0.317647, 0.654902, 0.976471, 1.0 ]
				}
,
				"parentstyle" : "",
				"multi" : 0
			}
, 			{
				"name" : "blueNight-1-3",
				"default" : 				{
					"textcolor_inverse" : [ 0.849573, 1.0, 0.926902, 1.0 ],
					"bgcolor" : [ 0.095481, 0.100396, 0.100293, 1.0 ],
					"patchlinecolor" : [ 0.317647, 0.654902, 0.976471, 0.9 ],
					"accentcolor" : [ 0.317647, 0.654902, 0.976471, 1.0 ],
					"textcolor" : [ 0.821246, 1.0, 0.904952, 1.0 ]
				}
,
				"parentstyle" : "",
				"multi" : 0
			}
, 			{
				"name" : "blueNight-1-3-1",
				"default" : 				{
					"textcolor_inverse" : [ 0.849573, 1.0, 0.926902, 1.0 ],
					"bgcolor" : [ 0.095481, 0.100396, 0.100293, 1.0 ],
					"patchlinecolor" : [ 0.317647, 0.654902, 0.976471, 0.9 ],
					"accentcolor" : [ 0.317647, 0.654902, 0.976471, 1.0 ]
				}
,
				"parentstyle" : "",
				"multi" : 0
			}
, 			{
				"name" : "blueNight-1-3-1-1",
				"default" : 				{
					"textcolor_inverse" : [ 0.849573, 1.0, 0.926902, 1.0 ],
					"bgcolor" : [ 0.095481, 0.100396, 0.100293, 1.0 ],
					"patchlinecolor" : [ 0.317647, 0.654902, 0.976471, 0.9 ],
					"accentcolor" : [ 0.317647, 0.654902, 0.976471, 1.0 ],
					"textcolor" : [ 0.821246, 1.0, 0.904952, 1.0 ]
				}
,
				"parentstyle" : "",
				"multi" : 0
			}
, 			{
				"name" : "blueNight-1-3-1-1-1",
				"default" : 				{
					"textcolor_inverse" : [ 0.849573, 1.0, 0.926902, 1.0 ],
					"bgcolor" : [ 0.095481, 0.100396, 0.100293, 1.0 ],
					"patchlinecolor" : [ 0.317647, 0.654902, 0.976471, 0.9 ],
					"accentcolor" : [ 0.317647, 0.654902, 0.976471, 1.0 ]
				}
,
				"parentstyle" : "",
				"multi" : 0
			}
, 			{
				"name" : "blueNight-1-3-1-1-2",
				"default" : 				{
					"textcolor_inverse" : [ 0.849573, 1.0, 0.926902, 1.0 ],
					"bgcolor" : [ 0.095481, 0.100396, 0.100293, 1.0 ],
					"patchlinecolor" : [ 0.317647, 0.654902, 0.976471, 0.9 ],
					"accentcolor" : [ 0.317647, 0.654902, 0.976471, 1.0 ]
				}
,
				"parentstyle" : "",
				"multi" : 0
			}
, 			{
				"name" : "blueNight-1-3-1-2",
				"default" : 				{
					"textcolor_inverse" : [ 0.849573, 1.0, 0.926902, 1.0 ],
					"bgcolor" : [ 0.095481, 0.100396, 0.100293, 1.0 ],
					"patchlinecolor" : [ 0.317647, 0.654902, 0.976471, 0.9 ],
					"accentcolor" : [ 0.317647, 0.654902, 0.976471, 1.0 ],
					"textcolor" : [ 0.821246, 1.0, 0.904952, 1.0 ]
				}
,
				"parentstyle" : "",
				"multi" : 0
			}
, 			{
				"name" : "blueNight-1-3-2",
				"default" : 				{
					"textcolor_inverse" : [ 0.849573, 1.0, 0.926902, 1.0 ],
					"bgcolor" : [ 0.095481, 0.100396, 0.100293, 1.0 ],
					"patchlinecolor" : [ 0.317647, 0.654902, 0.976471, 0.9 ],
					"accentcolor" : [ 0.317647, 0.654902, 0.976471, 1.0 ]
				}
,
				"parentstyle" : "",
				"multi" : 0
			}
, 			{
				"name" : "blueNight-1-3-3",
				"default" : 				{
					"textcolor_inverse" : [ 0.849573, 1.0, 0.926902, 1.0 ],
					"bgcolor" : [ 0.095481, 0.100396, 0.100293, 1.0 ],
					"patchlinecolor" : [ 0.317647, 0.654902, 0.976471, 0.9 ],
					"accentcolor" : [ 0.317647, 0.654902, 0.976471, 1.0 ]
				}
,
				"parentstyle" : "",
				"multi" : 0
			}
, 			{
				"name" : "blueNight-1-4",
				"default" : 				{
					"textcolor_inverse" : [ 0.849573, 1.0, 0.926902, 1.0 ],
					"bgcolor" : [ 0.095481, 0.100396, 0.100293, 1.0 ],
					"patchlinecolor" : [ 0.317647, 0.654902, 0.976471, 0.9 ],
					"accentcolor" : [ 0.317647, 0.654902, 0.976471, 1.0 ]
				}
,
				"parentstyle" : "",
				"multi" : 0
			}
, 			{
				"name" : "blueNight-1-5",
				"default" : 				{
					"textcolor_inverse" : [ 0.849573, 1.0, 0.926902, 1.0 ],
					"bgcolor" : [ 0.095481, 0.100396, 0.100293, 1.0 ],
					"patchlinecolor" : [ 0.317647, 0.654902, 0.976471, 0.9 ],
					"accentcolor" : [ 0.317647, 0.654902, 0.976471, 1.0 ],
					"textcolor" : [ 0.821246, 1.0, 0.904952, 1.0 ]
				}
,
				"parentstyle" : "",
				"multi" : 0
			}
, 			{
				"name" : "blueNight-1-5-1",
				"default" : 				{
					"textcolor_inverse" : [ 0.849573, 1.0, 0.926902, 1.0 ],
					"bgcolor" : [ 0.095481, 0.100396, 0.100293, 1.0 ],
					"patchlinecolor" : [ 0.317647, 0.654902, 0.976471, 0.9 ],
					"accentcolor" : [ 0.317647, 0.654902, 0.976471, 1.0 ]
				}
,
				"parentstyle" : "",
				"multi" : 0
			}
, 			{
				"name" : "blueNight-1-5-2",
				"default" : 				{
					"textcolor_inverse" : [ 0.849573, 1.0, 0.926902, 1.0 ],
					"bgcolor" : [ 0.095481, 0.100396, 0.100293, 1.0 ],
					"patchlinecolor" : [ 0.317647, 0.654902, 0.976471, 0.9 ],
					"accentcolor" : [ 0.317647, 0.654902, 0.976471, 1.0 ]
				}
,
				"parentstyle" : "",
				"multi" : 0
			}
, 			{
				"name" : "blueNight-1-6",
				"default" : 				{
					"textcolor_inverse" : [ 0.849573, 1.0, 0.926902, 1.0 ],
					"bgcolor" : [ 0.095481, 0.100396, 0.100293, 1.0 ],
					"patchlinecolor" : [ 0.317647, 0.654902, 0.976471, 0.9 ],
					"accentcolor" : [ 0.317647, 0.654902, 0.976471, 1.0 ],
					"textcolor" : [ 0.821246, 1.0, 0.904952, 1.0 ]
				}
,
				"parentstyle" : "",
				"multi" : 0
			}
, 			{
				"name" : "blueNight-2",
				"default" : 				{
					"textcolor_inverse" : [ 0.849573, 1.0, 0.926902, 1.0 ],
					"bgcolor" : [ 0.095481, 0.100396, 0.100293, 1.0 ],
					"patchlinecolor" : [ 0.317647, 0.654902, 0.976471, 0.9 ],
					"accentcolor" : [ 0.317647, 0.654902, 0.976471, 1.0 ]
				}
,
				"parentstyle" : "",
				"multi" : 0
			}
, 			{
				"name" : "blueNight-2-1",
				"default" : 				{
					"textcolor_inverse" : [ 0.849573, 1.0, 0.926902, 1.0 ],
					"bgcolor" : [ 0.095481, 0.100396, 0.100293, 1.0 ],
					"patchlinecolor" : [ 0.317647, 0.654902, 0.976471, 0.9 ],
					"accentcolor" : [ 0.317647, 0.654902, 0.976471, 1.0 ],
					"textcolor" : [ 0.821246, 1.0, 0.904952, 1.0 ]
				}
,
				"parentstyle" : "",
				"multi" : 0
			}
, 			{
				"name" : "blueNight-2-1-1",
				"default" : 				{
					"textcolor_inverse" : [ 0.849573, 1.0, 0.926902, 1.0 ],
					"bgcolor" : [ 0.095481, 0.100396, 0.100293, 1.0 ],
					"patchlinecolor" : [ 0.317647, 0.654902, 0.976471, 0.9 ],
					"accentcolor" : [ 0.317647, 0.654902, 0.976471, 1.0 ]
				}
,
				"parentstyle" : "",
				"multi" : 0
			}
, 			{
				"name" : "blueNight-2-1-1-1",
				"default" : 				{
					"textcolor_inverse" : [ 0.849573, 1.0, 0.926902, 1.0 ],
					"bgcolor" : [ 0.095481, 0.100396, 0.100293, 1.0 ],
					"patchlinecolor" : [ 0.317647, 0.654902, 0.976471, 0.9 ],
					"accentcolor" : [ 0.317647, 0.654902, 0.976471, 1.0 ],
					"textcolor" : [ 0.821246, 1.0, 0.904952, 1.0 ]
				}
,
				"parentstyle" : "",
				"multi" : 0
			}
, 			{
				"name" : "blueNight-2-1-1-1-1",
				"default" : 				{
					"textcolor_inverse" : [ 0.849573, 1.0, 0.926902, 1.0 ],
					"bgcolor" : [ 0.095481, 0.100396, 0.100293, 1.0 ],
					"patchlinecolor" : [ 0.317647, 0.654902, 0.976471, 0.9 ],
					"accentcolor" : [ 0.317647, 0.654902, 0.976471, 1.0 ]
				}
,
				"parentstyle" : "",
				"multi" : 0
			}
, 			{
				"name" : "blueNight-2-1-1-1-2",
				"default" : 				{
					"textcolor_inverse" : [ 0.849573, 1.0, 0.926902, 1.0 ],
					"bgcolor" : [ 0.095481, 0.100396, 0.100293, 1.0 ],
					"patchlinecolor" : [ 0.317647, 0.654902, 0.976471, 0.9 ],
					"accentcolor" : [ 0.317647, 0.654902, 0.976471, 1.0 ]
				}
,
				"parentstyle" : "",
				"multi" : 0
			}
, 			{
				"name" : "blueNight-2-1-1-2",
				"default" : 				{
					"textcolor_inverse" : [ 0.849573, 1.0, 0.926902, 1.0 ],
					"bgcolor" : [ 0.095481, 0.100396, 0.100293, 1.0 ],
					"patchlinecolor" : [ 0.317647, 0.654902, 0.976471, 0.9 ],
					"accentcolor" : [ 0.317647, 0.654902, 0.976471, 1.0 ],
					"textcolor" : [ 0.821246, 1.0, 0.904952, 1.0 ]
				}
,
				"parentstyle" : "",
				"multi" : 0
			}
, 			{
				"name" : "blueNight-2-1-2",
				"default" : 				{
					"textcolor_inverse" : [ 0.849573, 1.0, 0.926902, 1.0 ],
					"bgcolor" : [ 0.095481, 0.100396, 0.100293, 1.0 ],
					"patchlinecolor" : [ 0.317647, 0.654902, 0.976471, 0.9 ],
					"accentcolor" : [ 0.317647, 0.654902, 0.976471, 1.0 ]
				}
,
				"parentstyle" : "",
				"multi" : 0
			}
, 			{
				"name" : "blueNight-2-1-3",
				"default" : 				{
					"textcolor_inverse" : [ 0.849573, 1.0, 0.926902, 1.0 ],
					"bgcolor" : [ 0.095481, 0.100396, 0.100293, 1.0 ],
					"patchlinecolor" : [ 0.317647, 0.654902, 0.976471, 0.9 ],
					"accentcolor" : [ 0.317647, 0.654902, 0.976471, 1.0 ]
				}
,
				"parentstyle" : "",
				"multi" : 0
			}
, 			{
				"name" : "blueNight-2-2",
				"default" : 				{
					"textcolor_inverse" : [ 0.849573, 1.0, 0.926902, 1.0 ],
					"bgcolor" : [ 0.095481, 0.100396, 0.100293, 1.0 ],
					"patchlinecolor" : [ 0.317647, 0.654902, 0.976471, 0.9 ],
					"accentcolor" : [ 0.317647, 0.654902, 0.976471, 1.0 ]
				}
,
				"parentstyle" : "",
				"multi" : 0
			}
, 			{
				"name" : "blueNight-2-3",
				"default" : 				{
					"textcolor_inverse" : [ 0.849573, 1.0, 0.926902, 1.0 ],
					"bgcolor" : [ 0.095481, 0.100396, 0.100293, 1.0 ],
					"patchlinecolor" : [ 0.317647, 0.654902, 0.976471, 0.9 ],
					"accentcolor" : [ 0.317647, 0.654902, 0.976471, 1.0 ]
				}
,
				"parentstyle" : "",
				"multi" : 0
			}
, 			{
				"name" : "blueNight-2-4",
				"default" : 				{
					"textcolor_inverse" : [ 0.849573, 1.0, 0.926902, 1.0 ],
					"bgcolor" : [ 0.095481, 0.100396, 0.100293, 1.0 ],
					"patchlinecolor" : [ 0.317647, 0.654902, 0.976471, 0.9 ],
					"accentcolor" : [ 0.317647, 0.654902, 0.976471, 1.0 ],
					"textcolor" : [ 0.821246, 1.0, 0.904952, 1.0 ]
				}
,
				"parentstyle" : "",
				"multi" : 0
			}
, 			{
				"name" : "blueNight-2-4-1",
				"default" : 				{
					"textcolor_inverse" : [ 0.849573, 1.0, 0.926902, 1.0 ],
					"bgcolor" : [ 0.095481, 0.100396, 0.100293, 1.0 ],
					"patchlinecolor" : [ 0.317647, 0.654902, 0.976471, 0.9 ],
					"accentcolor" : [ 0.317647, 0.654902, 0.976471, 1.0 ]
				}
,
				"parentstyle" : "",
				"multi" : 0
			}
, 			{
				"name" : "blueNight-2-4-2",
				"default" : 				{
					"textcolor_inverse" : [ 0.849573, 1.0, 0.926902, 1.0 ],
					"bgcolor" : [ 0.095481, 0.100396, 0.100293, 1.0 ],
					"patchlinecolor" : [ 0.317647, 0.654902, 0.976471, 0.9 ],
					"accentcolor" : [ 0.317647, 0.654902, 0.976471, 1.0 ]
				}
,
				"parentstyle" : "",
				"multi" : 0
			}
, 			{
				"name" : "blueNight-2-5",
				"default" : 				{
					"textcolor_inverse" : [ 0.849573, 1.0, 0.926902, 1.0 ],
					"bgcolor" : [ 0.095481, 0.100396, 0.100293, 1.0 ],
					"patchlinecolor" : [ 0.317647, 0.654902, 0.976471, 0.9 ],
					"accentcolor" : [ 0.317647, 0.654902, 0.976471, 1.0 ],
					"textcolor" : [ 0.821246, 1.0, 0.904952, 1.0 ]
				}
,
				"parentstyle" : "",
				"multi" : 0
			}
, 			{
				"name" : "blueNight-3",
				"default" : 				{
					"textcolor_inverse" : [ 0.849573, 1.0, 0.926902, 1.0 ],
					"bgcolor" : [ 0.095481, 0.100396, 0.100293, 1.0 ],
					"patchlinecolor" : [ 0.317647, 0.654902, 0.976471, 0.9 ],
					"accentcolor" : [ 0.317647, 0.654902, 0.976471, 1.0 ]
				}
,
				"parentstyle" : "",
				"multi" : 0
			}
, 			{
				"name" : "blueNight-4",
				"default" : 				{
					"textcolor_inverse" : [ 0.849573, 1.0, 0.926902, 1.0 ],
					"bgcolor" : [ 0.095481, 0.100396, 0.100293, 1.0 ],
					"patchlinecolor" : [ 0.317647, 0.654902, 0.976471, 0.9 ],
					"accentcolor" : [ 0.317647, 0.654902, 0.976471, 1.0 ]
				}
,
				"parentstyle" : "",
				"multi" : 0
			}
, 			{
				"name" : "blueNight-4-1",
				"default" : 				{
					"textcolor_inverse" : [ 0.849573, 1.0, 0.926902, 1.0 ],
					"bgcolor" : [ 0.095481, 0.100396, 0.100293, 1.0 ],
					"patchlinecolor" : [ 0.317647, 0.654902, 0.976471, 0.9 ],
					"accentcolor" : [ 0.317647, 0.654902, 0.976471, 1.0 ],
					"textcolor" : [ 0.821246, 1.0, 0.904952, 1.0 ]
				}
,
				"parentstyle" : "",
				"multi" : 0
			}
, 			{
				"name" : "blueNight-4-1-1",
				"default" : 				{
					"textcolor_inverse" : [ 0.849573, 1.0, 0.926902, 1.0 ],
					"bgcolor" : [ 0.095481, 0.100396, 0.100293, 1.0 ],
					"patchlinecolor" : [ 0.317647, 0.654902, 0.976471, 0.9 ],
					"accentcolor" : [ 0.317647, 0.654902, 0.976471, 1.0 ]
				}
,
				"parentstyle" : "",
				"multi" : 0
			}
, 			{
				"name" : "blueNight-4-1-1-1",
				"default" : 				{
					"textcolor_inverse" : [ 0.849573, 1.0, 0.926902, 1.0 ],
					"bgcolor" : [ 0.095481, 0.100396, 0.100293, 1.0 ],
					"patchlinecolor" : [ 0.317647, 0.654902, 0.976471, 0.9 ],
					"accentcolor" : [ 0.317647, 0.654902, 0.976471, 1.0 ],
					"textcolor" : [ 0.821246, 1.0, 0.904952, 1.0 ]
				}
,
				"parentstyle" : "",
				"multi" : 0
			}
, 			{
				"name" : "blueNight-4-1-1-2",
				"default" : 				{
					"textcolor_inverse" : [ 0.849573, 1.0, 0.926902, 1.0 ],
					"bgcolor" : [ 0.095481, 0.100396, 0.100293, 1.0 ],
					"patchlinecolor" : [ 0.317647, 0.654902, 0.976471, 0.9 ],
					"accentcolor" : [ 0.317647, 0.654902, 0.976471, 1.0 ],
					"textcolor" : [ 0.821246, 1.0, 0.904952, 1.0 ]
				}
,
				"parentstyle" : "",
				"multi" : 0
			}
, 			{
				"name" : "blueNight-4-1-2",
				"default" : 				{
					"textcolor_inverse" : [ 0.849573, 1.0, 0.926902, 1.0 ],
					"bgcolor" : [ 0.095481, 0.100396, 0.100293, 1.0 ],
					"patchlinecolor" : [ 0.317647, 0.654902, 0.976471, 0.9 ],
					"accentcolor" : [ 0.317647, 0.654902, 0.976471, 1.0 ]
				}
,
				"parentstyle" : "",
				"multi" : 0
			}
, 			{
				"name" : "blueNight-4-2",
				"default" : 				{
					"textcolor_inverse" : [ 0.849573, 1.0, 0.926902, 1.0 ],
					"bgcolor" : [ 0.095481, 0.100396, 0.100293, 1.0 ],
					"patchlinecolor" : [ 0.317647, 0.654902, 0.976471, 0.9 ],
					"accentcolor" : [ 0.317647, 0.654902, 0.976471, 1.0 ],
					"textcolor" : [ 0.821246, 1.0, 0.904952, 1.0 ]
				}
,
				"parentstyle" : "",
				"multi" : 0
			}
, 			{
				"name" : "blueNight-4-3",
				"default" : 				{
					"textcolor_inverse" : [ 0.849573, 1.0, 0.926902, 1.0 ],
					"bgcolor" : [ 0.095481, 0.100396, 0.100293, 1.0 ],
					"patchlinecolor" : [ 0.317647, 0.654902, 0.976471, 0.9 ],
					"accentcolor" : [ 0.317647, 0.654902, 0.976471, 1.0 ],
					"textcolor" : [ 0.821246, 1.0, 0.904952, 1.0 ]
				}
,
				"parentstyle" : "",
				"multi" : 0
			}
, 			{
				"name" : "blueNight-5",
				"default" : 				{
					"textcolor_inverse" : [ 0.849573, 1.0, 0.926902, 1.0 ],
					"bgcolor" : [ 0.095481, 0.100396, 0.100293, 1.0 ],
					"patchlinecolor" : [ 0.317647, 0.654902, 0.976471, 0.9 ],
					"accentcolor" : [ 0.317647, 0.654902, 0.976471, 1.0 ],
					"textcolor" : [ 0.821246, 1.0, 0.904952, 1.0 ]
				}
,
				"parentstyle" : "",
				"multi" : 0
			}
, 			{
				"name" : "blueNight-6",
				"default" : 				{
					"textcolor_inverse" : [ 0.849573, 1.0, 0.926902, 1.0 ],
					"bgcolor" : [ 0.095481, 0.100396, 0.100293, 1.0 ],
					"patchlinecolor" : [ 0.317647, 0.654902, 0.976471, 0.9 ],
					"accentcolor" : [ 0.317647, 0.654902, 0.976471, 1.0 ]
				}
,
				"parentstyle" : "",
				"multi" : 0
			}
, 			{
				"name" : "blueNight-6-1",
				"default" : 				{
					"textcolor_inverse" : [ 0.849573, 1.0, 0.926902, 1.0 ],
					"bgcolor" : [ 0.095481, 0.100396, 0.100293, 1.0 ],
					"patchlinecolor" : [ 0.317647, 0.654902, 0.976471, 0.9 ],
					"accentcolor" : [ 0.317647, 0.654902, 0.976471, 1.0 ],
					"textcolor" : [ 0.821246, 1.0, 0.904952, 1.0 ]
				}
,
				"parentstyle" : "",
				"multi" : 0
			}
, 			{
				"name" : "blueNight-6-2",
				"default" : 				{
					"textcolor_inverse" : [ 0.849573, 1.0, 0.926902, 1.0 ],
					"bgcolor" : [ 0.095481, 0.100396, 0.100293, 1.0 ],
					"patchlinecolor" : [ 0.317647, 0.654902, 0.976471, 0.9 ],
					"accentcolor" : [ 0.317647, 0.654902, 0.976471, 1.0 ],
					"textcolor" : [ 0.821246, 1.0, 0.904952, 1.0 ]
				}
,
				"parentstyle" : "",
				"multi" : 0
			}
, 			{
				"name" : "blueNight-7",
				"default" : 				{
					"textcolor_inverse" : [ 0.849573, 1.0, 0.926902, 1.0 ],
					"bgcolor" : [ 0.095481, 0.100396, 0.100293, 1.0 ],
					"patchlinecolor" : [ 0.317647, 0.654902, 0.976471, 0.9 ],
					"accentcolor" : [ 0.317647, 0.654902, 0.976471, 1.0 ]
				}
,
				"parentstyle" : "",
				"multi" : 0
			}
, 			{
				"name" : "solarized?",
				"default" : 				{
					"textcolor_inverse" : [ 0.995808362960815, 0.800102710723877, 0.399984955787659, 1.0 ],
					"bgcolor" : [ 0.054901960784314, 0.247058823529412, 0.447058823529412, 1.0 ],
					"patchlinecolor" : [ 0.999996185302734, 0.99993908405304, 0.041033305227757, 1.0 ],
					"bgfillcolor" : 					{
						"type" : "gradient",
						"color" : [ 0.2, 0.2, 0.2, 1.0 ],
						"color1" : [ 0.16078431372549, 0.274509803921569, 0.403921568627451, 1.0 ],
						"color2" : [ 0.129411764705882, 0.196078431372549, 0.462745098039216, 1.0 ],
						"angle" : 270.0,
						"proportion" : 0.5,
						"autogradient" : 0.0
					}
,
					"accentcolor" : [ 0.079000525176525, 0.389900922775269, 0.349255114793777, 1.0 ],
					"locked_bgcolor" : [ 0.046158168464899, 0.128987193107605, 0.161438345909119, 1.0 ],
					"color" : [ 0.815686274509804, 0.827450980392157, 0.188235294117647, 1.0 ],
					"textcolor" : [ 0.800000071525574, 0.800000071525574, 0.799999952316284, 1.0 ],
					"editing_bgcolor" : [ 0.04340959712863, 0.172110125422478, 0.21745640039444, 1.0 ],
					"fontname" : [ "Arial" ]
				}
,
				"parentstyle" : "",
				"multi" : 0
			}
 ],
		"selectioncolor" : [ 0.925490196078431, 0.831372549019608, 0.349019607843137, 1.0 ],
		"textcolor_inverse" : [ 0.996078431372549, 0.874509803921569, 0.243137254901961, 1.0 ],
		"patchlinecolor" : [ 0.996078431372549, 0.694117647058824, 0.082352941176471, 1.0 ]
	}

}
